SplineFontDB: 3.2
FontName: ExtraCalories
FullName: ExtraCalories
FamilyName: ExtraCalories
Weight: Regular
Copyright: No Copyright (Cc) 2020 Met Sender / Mehmet PINARCI
UComments: "Type set is named '' Extra Calories '' Have Fun ! "
Version: 001.000
ItalicAngle: 0
UnderlinePosition: -102
UnderlineWidth: 51
Ascent: 819
Descent: 205
InvalidEm: 0
LayerCount: 2
Layer: 0 1 "Back" 1
Layer: 1 1 "Fore" 0
XUID: [1021 66 1585159542 1819]
FSType: 0
OS2Version: 0
OS2_WeightWidthSlopeOnly: 0
OS2_UseTypoMetrics: 1
CreationTime: 1582664074
ModificationTime: 1582683601
PfmFamily: 17
TTFWeight: 200
TTFWidth: 5
LineGap: 94
VLineGap: 0
OS2TypoAscent: 0
OS2TypoAOffset: 1
OS2TypoDescent: 0
OS2TypoDOffset: 1
OS2TypoLinegap: 94
OS2WinAscent: 0
OS2WinAOffset: 1
OS2WinDescent: 0
OS2WinDOffset: 1
HheadAscent: 0
HheadAOffset: 1
HheadDescent: 0
HheadDOffset: 1
OS2Vendor: 'PfEd'
MarkAttachClasses: 1
DEI: 91125
LangName: 1033
Encoding: ISO8859-1
UnicodeInterp: none
NameList: AGL For New Fonts
DisplaySize: -48
AntiAlias: 1
FitToEm: 0
WinInfo: 0 38 14
BeginPrivate: 0
EndPrivate
TeXData: 1 0 1024 460800 524288 349525 851444 1048576 349525 783286 444596 497025 792723 393216 433062 380633 303038 157286 324010 404750 52429 2506097 1059062 262144
BeginChars: 262 105

StartChar: A
Encoding: 65 65 0
Width: 1024
VWidth: 0
Flags: W
LayerCount: 2
Fore
SplineSet
102 758 m 17,0,-1
 513 806 l 1,1,-1
 986 797 l 1,2,-1
 1022 659 l 1,3,-1
 1016 340 l 1,4,-1
 792 633 l 1,5,-1
 646 618 l 1,6,-1
 630 524 l 1,7,-1
 785 606 l 1,8,-1
 1042 276 l 1,9,-1
 1042 49 l 1,10,-1
 779 59 l 1,11,-1
 685 262 l 1,12,-1
 716 289 l 1,13,-1
 724 408 l 1,14,-1
 585 408 l 1,15,-1
 759 43 l 1,16,-1
 746 0 l 1,17,-1
 16 2 l 1,18,-1
 -37 78 l 1,19,-1
 -25 100 l 1,20,-1
 47 123 l 1,21,-1
 55 293 l 1,22,-1
 23 332 l 1,23,-1
 82 426 l 1,24,-1
 374 418 l 1,25,-1
 601 522 l 1,26,-1
 611 627 l 1,27,-1
 366 451 l 1,28,-1
 33 457 l 1,29,-1
 -6 526 l 1,30,-1
 102 758 l 17,0,-1
EndSplineSet
Validated: 1
EndChar

StartChar: B
Encoding: 66 66 1
Width: 1024
VWidth: 0
Flags: W
LayerCount: 2
Fore
SplineSet
102 797 m 1,0,-1
 332 823 l 1,1,-1
 353 684 l 1,2,-1
 775 453 l 1,3,-1
 775 532 l 1,4,-1
 368 735 l 1,5,-1
 373 823 l 1,6,-1
 946 772 l 1,7,-1
 1032 629 l 1,8,-1
 1004 412 l 1,9,-1
 860 430 l 1,10,-1
 773 344 l 1,11,-1
 648 338 l 1,12,-1
 509 135 l 1,13,-1
 579 135 l 1,14,-1
 859 403 l 1,15,-1
 1049 387 l 1,16,-1
 1042 152 l 1,17,-1
 728 0 l 1,18,-1
 644 27 l 1,19,-1
 39 0 l 1,20,-1
 -8 281 l 1,21,-1
 20 289 l 1,22,-1
 55 436 l 1,23,-1
 6 455 l 1,24,-1
 0 649 l 1,25,-1
 102 797 l 1,0,-1
EndSplineSet
Validated: 1
EndChar

StartChar: C
Encoding: 67 67 2
Width: 1026
VWidth: 0
Flags: W
LayerCount: 2
Fore
SplineSet
-11 810 m 25,0,-1
 78 809 l 1,1,-1
 102 723 l 1,2,-1
 163 723 l 1,3,-1
 196 811 l 1,4,-1
 798 813 l 1,5,-1
 1061 623 l 1,6,-1
 1027 477 l 1,7,-1
 873 397 l 1,8,-1
 820 438 l 1,9,-1
 499 424 l 1,10,-1
 456 479 l 1,11,-1
 261 479 l 1,12,-1
 265 408 l 1,13,-1
 298 369 l 1,14,-1
 335 371 l 1,15,-1
 366 401 l 1,16,-1
 798 412 l 1,17,-1
 1037 213 l 1,18,-1
 845 8 l 1,19,-1
 185 8 l 1,20,-1
 -36 223 l 1,21,-1
 -11 810 l 25,0,-1
EndSplineSet
Validated: 1
EndChar

StartChar: D
Encoding: 68 68 3
Width: 1026
VWidth: 0
Flags: W
LayerCount: 2
Fore
SplineSet
63 806 m 1,0,-1
 153 805 l 1,1,-1
 177 719 l 1,2,-1
 200 719 l 1,3,-1
 232 807 l 1,4,-1
 798 813 l 1,5,-1
 1055 621 l 1,6,-1
 1005 240 l 1,7,-1
 845 8 l 1,8,-1
 185 8 l 1,9,-1
 -19 221 l 1,10,-1
 -6 545 l 1,11,-1
 318 449 l 1,12,-1
 339 242 l 1,13,-1
 372 203 l 1,14,-1
 443 217 l 1,15,-1
 476 379 l 1,16,-1
 390 608 l 1,17,-1
 331 569 l 1,18,-1
 323 479 l 1,19,-1
 0 571 l 1,20,-1
 63 806 l 1,0,-1
EndSplineSet
Validated: 1
EndChar

StartChar: E
Encoding: 69 69 4
Width: 1026
VWidth: 0
Flags: W
LayerCount: 2
Fore
SplineSet
-8 814 m 25,0,-1
 81 813 l 1,1,-1
 105 727 l 1,2,-1
 128 727 l 1,3,-1
 161 815 l 1,4,-1
 798 813 l 1,5,-1
 1050 621 l 1,6,-1
 1022 578 l 1,7,-1
 903 496 l 1,8,-1
 826 541 l 1,9,-1
 505 526 l 1,10,-1
 462 582 l 1,11,-1
 267 582 l 1,12,-1
 321 496 l 1,13,-1
 757 510 l 1,14,-1
 852 446 l 1,15,-1
 624 315 l 1,16,-1
 298 313 l 1,17,-1
 337 242 l 1,18,-1
 374 285 l 1,19,-1
 656 287 l 1,20,-1
 804 379 l 1,21,-1
 1020 311 l 1,22,-1
 1026 211 l 1,23,-1
 868 4 l 1,24,-1
 151 12 l 1,25,-1
 -33 227 l 1,26,-1
 -8 814 l 25,0,-1
EndSplineSet
Validated: 1
EndChar

StartChar: F
Encoding: 70 70 5
Width: 1026
VWidth: 0
Flags: W
LayerCount: 2
Fore
SplineSet
14 788 m 25,0,-1
 232 780 l 1,1,-1
 253 752 l 1,2,-1
 271 788 l 1,3,-1
 979 788 l 1,4,-1
 1043 649 l 1,5,-1
 1026 379 l 1,6,-1
 838 379 l 1,7,-1
 685 559 l 1,8,-1
 296 575 l 1,9,-1
 286 545 l 1,10,-1
 285 402 l 1,11,-1
 314 399 l 1,12,-1
 318 520 l 1,13,-1
 667 522 l 1,14,-1
 815 354 l 1,15,-1
 815 201 l 1,16,-1
 587 205 l 1,17,-1
 587 182 l 1,18,-1
 694 182 l 1,19,-1
 689 0 l 1,20,-1
 52 14 l 1,21,-1
 -20 66 l 1,22,-1
 -31 516 l 1,23,-1
 14 788 l 25,0,-1
EndSplineSet
Validated: 1
EndChar

StartChar: G
Encoding: 71 71 6
Width: 1026
VWidth: 0
Flags: W
LayerCount: 2
Fore
SplineSet
2 810 m 25,0,-1
 91 809 l 1,1,-1
 116 723 l 1,2,-1
 138 723 l 1,3,-1
 171 811 l 1,4,-1
 821 825 l 1,5,-1
 1050 637 l 1,6,-1
 1016 492 l 1,7,-1
 969 465 l 1,8,-1
 920 494 l 1,9,-1
 554 487 l 1,10,-1
 476 379 l 1,11,-1
 577 281 l 1,12,-1
 770 295 l 1,13,-1
 728 342 l 1,14,-1
 599 342 l 1,15,-1
 624 399 l 1,16,-1
 911 414 l 1,17,-1
 1026 227 l 1,18,-1
 868 20 l 1,19,-1
 161 8 l 1,20,-1
 -23 223 l 1,21,-1
 2 810 l 25,0,-1
EndSplineSet
Validated: 1
EndChar

StartChar: H
Encoding: 72 72 7
Width: 1024
VWidth: 0
Flags: W
LayerCount: 2
Fore
SplineSet
-24 736 m 25,0,-1
 83 809 l 1,1,-1
 439 805 l 1,2,-1
 490 412 l 1,3,-1
 452 412 l 1,4,-1
 447 385 l 1,5,-1
 574 397 l 1,6,-1
 577 442 l 1,7,-1
 525 446 l 1,8,-1
 474 717 l 1,9,-1
 538 793 l 1,10,-1
 935 788 l 1,11,-1
 1035 692 l 1,12,-1
 1066 126 l 1,13,-1
 933 18 l 1,14,-1
 624 20 l 1,15,-1
 523 262 l 1,16,-1
 523 336 l 1,17,-1
 382 332 l 1,18,-1
 384 291 l 1,19,-1
 480 297 l 1,20,-1
 482 254 l 1,21,-1
 476 18 l 1,22,-1
 48 14 l 1,23,-1
 -7 74 l 1,24,-1
 -24 736 l 25,0,-1
EndSplineSet
Validated: 1
EndChar

StartChar: I
Encoding: 73 73 8
Width: 1024
VWidth: 0
Flags: W
LayerCount: 2
Fore
SplineSet
-18 782 m 25,0,-1
 474 813 l 1,1,-1
 1033 844 l 1,2,-1
 1010 666 l 1,3,-1
 977 631 l 1,4,-1
 817 639 l 1,5,-1
 821 596 l 1,6,-1
 892 592 l 1,7,-1
 902 207 l 1,8,-1
 758 203 l 1,9,-1
 764 176 l 1,10,-1
 1024 180 l 1,11,-1
 1022 102 l 1,12,-1
 948 23 l 1,13,-1
 -20 -12 l 1,14,-1
 -18 39 l 1,15,-1
 174 37 l 1,16,-1
 178 74 l 1,17,-1
 145 96 l 1,18,-1
 125 72 l 1,19,-1
 39 80 l 1,20,-1
 45 459 l 1,21,-1
 152 457 l 1,22,-1
 197 481 l 1,23,-1
 195 528 l 1,24,-1
 152 528 l 1,25,-1
 119 496 l 1,26,-1
 -12 518 l 1,27,-1
 -18 782 l 25,0,-1
EndSplineSet
Validated: 1
EndChar

StartChar: J
Encoding: 74 74 9
Width: 1024
VWidth: 0
Flags: W
LayerCount: 2
Fore
SplineSet
81 795 m 25,0,-1
 155 829 l 1,1,-1
 902 786 l 1,2,-1
 1035 680 l 1,3,-1
 1043 111 l 1,4,-1
 953 -2 l 1,5,-1
 108 43 l 1,6,-1
 -22 227 l 1,7,-1
 -22 408 l 1,8,-1
 390 383 l 1,9,-1
 703 174 l 1,10,-1
 753 199 l 1,11,-1
 759 528 l 1,12,-1
 722 535 l 1,13,-1
 718 240 l 1,14,-1
 425 451 l 1,15,-1
 153 498 l 1,16,-1
 81 555 l 1,17,-1
 81 795 l 25,0,-1
EndSplineSet
Validated: 1
EndChar

StartChar: K
Encoding: 75 75 10
Width: 1024
VWidth: 0
Flags: W
LayerCount: 2
Fore
SplineSet
39 842 m 1,0,-1
 521 815 l 1,1,-1
 544 745 l 1,2,-1
 325 569 l 1,3,-1
 366 565 l 1,4,-1
 689 817 l 1,5,-1
 1024 797 l 1,6,-1
 1034 510 l 1,7,-1
 883 385 l 1,8,-1
 511 485 l 1,9,-1
 482 420 l 1,10,-1
 325 475 l 1,11,-1
 316 444 l 1,12,-1
 495 375 l 1,13,-1
 540 440 l 1,14,-1
 1040 315 l 1,15,-1
 1040 145 l 1,16,-1
 918 2 l 1,17,-1
 577 12 l 1,18,-1
 521 68 l 1,19,-1
 304 358 l 1,20,-1
 278 346 l 1,21,-1
 478 49 l 1,22,-1
 472 14 l 1,23,-1
 63 37 l 1,24,-1
 -8 96 l 1,25,-1
 -12 319 l 1,26,-1
 41 379 l 1,27,-1
 49 481 l 1,28,-1
 -12 553 l 1,29,-1
 -22 707 l 1,30,-1
 39 842 l 1,0,-1
EndSplineSet
Validated: 1
EndChar

StartChar: L
Encoding: 76 76 11
Width: 1024
VWidth: 0
Flags: W
LayerCount: 2
Fore
SplineSet
94 821 m 25,0,-1
 390 795 l 1,1,-1
 624 782 l 1,2,-1
 660 717 l 1,3,-1
 536 129 l 1,4,-1
 497 125 l 1,5,-1
 493 106 l 1,6,-1
 605 104 l 1,7,-1
 663 317 l 1,8,-1
 597 334 l 1,9,-1
 640 502 l 1,10,-1
 877 539 l 1,11,-1
 1038 416 l 1,12,-1
 1024 86 l 1,13,-1
 981 41 l 1,14,-1
 472 0 l 1,15,-1
 72 35 l 1,16,-1
 -18 150 l 1,17,-1
 -16 702 l 1,18,-1
 94 821 l 25,0,-1
EndSplineSet
Validated: 1
EndChar

StartChar: M
Encoding: 77 77 12
Width: 1024
VWidth: 0
Flags: W
LayerCount: 2
Fore
SplineSet
-32 840 m 25,0,-1
 259 797 l 1,1,-1
 470 455 l 1,2,-1
 439 406 l 1,3,-1
 490 346 l 1,4,-1
 524 409 l 1,5,-1
 322 728 l 1,6,-1
 373 811 l 1,7,-1
 932 823 l 1,8,-1
 1051 698 l 1,9,-1
 924 223 l 1,10,-1
 946 219 l 1,11,-1
 1008 475 l 1,12,-1
 1053 475 l 1,13,-1
 1051 125 l 1,14,-1
 953 23 l 1,15,-1
 520 15 l 1,16,-1
 643 424 l 1,17,-1
 606 432 l 1,18,-1
 534 211 l 1,19,-1
 472 205 l 1,20,-1
 349 392 l 1,21,-1
 314 373 l 1,22,-1
 413 207 l 1,23,-1
 417 53 l 1,24,-1
 378 14 l 1,25,-1
 117 41 l 1,26,-1
 -23 141 l 1,27,-1
 -23 354 l 1,28,-1
 2 379 l 1,29,-1
 2 684 l 1,30,-1
 -32 717 l 1,31,-1
 -32 840 l 25,0,-1
EndSplineSet
Validated: 1
EndChar

StartChar: N
Encoding: 78 78 13
Width: 1024
VWidth: 0
Flags: W
LayerCount: 2
Fore
SplineSet
-28 776 m 25,0,-1
 14 807 l 1,1,-1
 474 434 l 1,2,-1
 452 399 l 1,3,-1
 699 225 l 1,4,-1
 726 268 l 1,5,-1
 327 612 l 1,6,-1
 289 803 l 1,7,-1
 679 809 l 1,8,-1
 1038 774 l 1,9,-1
 1044 600 l 1,10,-1
 1016 551 l 1,11,-1
 1036 80 l 1,12,-1
 989 33 l 1,13,-1
 643 0 l 1,14,-1
 644 102 l 1,15,-1
 337 352 l 1,16,-1
 327 340 l 1,17,-1
 519 170 l 1,18,-1
 485 -6 l 1,19,-1
 111 25 l 1,20,-1
 -6 96 l 1,21,-1
 -16 383 l 1,22,-1
 12 403 l 1,23,-1
 18 569 l 1,24,-1
 -28 610 l 1,25,-1
 -28 776 l 25,0,-1
EndSplineSet
Validated: 1
EndChar

StartChar: O
Encoding: 79 79 14
Width: 1024
VWidth: 0
Flags: W
LayerCount: 2
Fore
SplineSet
-40 698 m 25,0,-1
 157 805 l 1,1,-1
 202 780 l 1,2,-1
 140 608 l 1,3,-1
 464 446 l 1,4,-1
 472 133 l 1,5,-1
 587 104 l 1,6,-1
 628 137 l 1,7,-1
 591 555 l 1,8,-1
 566 582 l 1,9,-1
 505 575 l 1,10,-1
 472 545 l 1,11,-1
 468 469 l 1,12,-1
 163 612 l 1,13,-1
 237 817 l 1,14,-1
 872 776 l 1,15,-1
 1026 614 l 1,16,-1
 1024 53 l 1,17,-1
 969 -2 l 1,18,-1
 73 31 l 1,19,-1
 -30 127 l 1,20,-1
 -40 698 l 25,0,-1
EndSplineSet
Validated: 1
EndChar

StartChar: P
Encoding: 80 80 15
Width: 1024
VWidth: 0
Flags: W
LayerCount: 2
Fore
SplineSet
-30 711 m 25,0,-1
 49 811 l 1,1,-1
 121 813 l 1,2,-1
 123 756 l 1,3,-1
 606 528 l 1,4,-1
 625 373 l 1,5,-1
 718 358 l 1,6,-1
 749 487 l 1,7,-1
 699 604 l 1,8,-1
 633 621 l 1,9,-1
 612 549 l 1,10,-1
 143 766 l 1,11,-1
 156 821 l 1,12,-1
 920 801 l 1,13,-1
 967 766 l 1,14,-1
 1047 418 l 1,15,-1
 1016 332 l 1,16,-1
 769 184 l 1,17,-1
 637 276 l 1,18,-1
 451 326 l 1,19,-1
 455 299 l 1,20,-1
 631 250 l 1,21,-1
 876 63 l 1,22,-1
 853 -12 l 1,23,-1
 8 23 l 1,24,-1
 -30 84 l 1,25,-1
 -6 104 l 1,26,-1
 2 317 l 1,27,-1
 20 334 l 1,28,-1
 23 383 l 1,29,-1
 -30 408 l 1,30,-1
 -30 711 l 25,0,-1
EndSplineSet
Validated: 1
EndChar

StartChar: Q
Encoding: 81 81 16
Width: 1024
VWidth: 0
Flags: W
LayerCount: 2
Fore
SplineSet
119 834 m 1,0,-1
 841 793 l 1,1,-1
 863 758 l 1,2,-1
 598 514 l 1,3,-1
 542 287 l 1,4,-1
 652 125 l 1,5,-1
 669 135 l 1,6,-1
 591 283 l 1,7,-1
 624 371 l 1,8,-1
 779 354 l 1,9,-1
 884 202 l 1,10,-1
 912 240 l 1,11,-1
 726 612 l 1,12,-1
 906 778 l 1,13,-1
 1055 556 l 1,14,-1
 1007 201 l 1,15,-1
 914 137 l 1,16,-1
 986 -25 l 1,17,-1
 828 -25 l 1,18,-1
 722 55 l 1,19,-1
 587 2 l 1,20,-1
 62 43 l 1,21,-1
 -40 266 l 1,22,-1
 -40 709 l 1,23,-1
 119 834 l 1,0,-1
EndSplineSet
Validated: 1
EndChar

StartChar: R
Encoding: 82 82 17
Width: 1024
VWidth: 0
Flags: W
LayerCount: 2
Fore
SplineSet
-24 759 m 25,0,-1
 29 820 l 1,1,-1
 566 825 l 1,2,-1
 1004 705 l 1,3,-1
 1040 352 l 1,4,-1
 558 281 l 1,5,-1
 561 266 l 1,6,-1
 630 242 l 1,7,-1
 714 258 l 1,8,-1
 741 287 l 1,9,-1
 922 309 l 1,10,-1
 1032 260 l 1,11,-1
 995 0 l 1,12,-1
 469 22 l 1,13,-1
 495 59 l 1,14,-1
 409 410 l 1,15,-1
 743 463 l 1,16,-1
 750 441 l 1,17,-1
 784 449 l 1,18,-1
 737 517 l 1,19,-1
 477 480 l 1,20,-1
 484 449 l 1,21,-1
 379 425 l 1,22,-1
 415 268 l 1,23,-1
 339 238 l 1,24,-1
 442 36 l 1,25,-1
 410 1 l 1,26,-1
 16 12 l 1,27,-1
 -23 53 l 1,28,-1
 -39 375 l 1,29,-1
 -8 469 l 1,30,-1
 14 471 l 1,31,-1
 59 430 l 1,32,-1
 88 434 l 1,33,-1
 -12 527 l 1,34,-1
 -24 759 l 25,0,-1
EndSplineSet
Validated: 1
EndChar

StartChar: S
Encoding: 83 83 18
Width: 1024
VWidth: 0
Flags: W
LayerCount: 2
Fore
SplineSet
441 283 m 1,0,-1
 359 359 l 1,1,-1
 487 420 l 1,2,-1
 822 289 l 1,3,-1
 828 317 l 1,4,-1
 473 455 l 1,5,-1
 333 383 l 1,6,-1
 113 383 l 1,7,-1
 -46 625 l 1,8,-1
 42 809 l 1,9,-1
 465 838 l 1,10,-1
 948 774 l 1,11,-1
 1034 743 l 1,12,-1
 1034 561 l 1,13,-1
 915 418 l 1,14,-1
 618 524 l 1,15,-1
 586 571 l 1,16,-1
 508 569 l 1,17,-1
 524 528 l 1,18,-1
 950 395 l 1,19,-1
 1075 162 l 1,20,-1
 618 -23 l 1,21,-1
 22 12 l 1,22,-1
 -52 266 l 1,23,-1
 36 356 l 1,24,-1
 298 354 l 1,25,-1
 383 283 l 1,26,-1
 441 283 l 1,0,-1
EndSplineSet
Validated: 1
EndChar

StartChar: T
Encoding: 84 84 19
Width: 1024
VWidth: 0
Flags: W
LayerCount: 2
Fore
SplineSet
-27 801 m 25,0,-1
 476 829 l 1,1,-1
 1015 793 l 1,2,-1
 1058 387 l 1,3,-1
 746 330 l 1,4,-1
 673 702 l 1,5,-1
 650 700 l 1,6,-1
 716 307 l 1,7,-1
 894 346 l 1,8,-1
 1011 242 l 1,9,-1
 984 41 l 1,10,-1
 525 -10 l 1,11,-1
 109 2 l 1,12,-1
 52 35 l 1,13,-1
 -22 274 l 1,14,-1
 -5 383 l 1,15,-1
 123 445 l 1,16,-1
 200 637 l 1,17,-1
 166 651 l 1,18,-1
 103 484 l 1,19,-1
 -5 483 l 1,20,-1
 -48 612 l 1,21,-1
 -27 801 l 25,0,-1
EndSplineSet
Validated: 1
EndChar

StartChar: U
Encoding: 85 85 20
Width: 1024
VWidth: 0
Flags: W
LayerCount: 2
Fore
SplineSet
3 807 m 25,0,-1
 115 809 l 1,1,-1
 156 764 l 1,2,-1
 471 797 l 1,3,-1
 481 760 l 1,4,-1
 467 283 l 1,5,-1
 416 252 l 1,6,-1
 412 217 l 1,7,-1
 543 197 l 1,8,-1
 592 231 l 1,9,-1
 594 281 l 1,10,-1
 524 303 l 1,11,-1
 546 727 l 1,12,-1
 609 795 l 1,13,-1
 930 799 l 1,14,-1
 1049 700 l 1,15,-1
 1044 266 l 1,16,-1
 930 12 l 1,17,-1
 499 0 l 1,18,-1
 160 70 l 1,19,-1
 119 -20 l 1,20,-1
 0 49 l 1,21,-1
 -43 709 l 1,22,-1
 3 807 l 25,0,-1
EndSplineSet
Validated: 1
EndChar

StartChar: V
Encoding: 86 86 21
Width: 1024
VWidth: 0
Flags: W
LayerCount: 2
Fore
SplineSet
83 803 m 25,0,-1
 148 817 l 1,1,-1
 445 764 l 1,2,-1
 540 526 l 1,3,-1
 439 186 l 1,4,-1
 462 154 l 1,5,-1
 509 154 l 1,6,-1
 574 346 l 1,7,-1
 538 383 l 1,8,-1
 654 805 l 1,9,-1
 1007 801 l 1,10,-1
 1054 643 l 1,11,-1
 997 233 l 1,12,-1
 514 -31 l 1,13,-1
 494 -29 l 1,14,-1
 -10 244 l 1,15,-1
 -27 664 l 1,16,-1
 83 803 l 25,0,-1
EndSplineSet
Validated: 1
EndChar

StartChar: W
Encoding: 87 87 22
Width: 1024
VWidth: 0
Flags: W
LayerCount: 2
Fore
SplineSet
-25 596 m 25,0,-1
 199 805 l 1,1,-1
 554 815 l 1,2,-1
 544 547 l 1,3,-1
 450 537 l 1,4,-1
 323 186 l 1,5,-1
 349 186 l 1,6,-1
 470 477 l 1,7,-1
 540 465 l 1,8,-1
 648 256 l 1,9,-1
 667 274 l 1,10,-1
 589 530 l 1,11,-1
 626 809 l 1,12,-1
 935 846 l 1,13,-1
 1080 543 l 1,14,-1
 1024 53 l 1,15,-1
 571 -20 l 1,16,-1
 463 197 l 1,17,-1
 301 -20 l 1,18,-1
 49 39 l 1,19,-1
 -23 524 l 1,20,-1
 -25 596 l 25,0,-1
EndSplineSet
Validated: 1
EndChar

StartChar: X
Encoding: 88 88 23
Width: 1024
VWidth: 0
Flags: W
LayerCount: 2
Fore
SplineSet
24 817 m 1,0,-1
 261 856 l 1,1,-1
 379 815 l 1,2,-1
 422 676 l 1,3,-1
 522 437 l 1,4,-1
 560 436 l 1,5,-1
 519 496 l 1,6,-1
 437 723 l 1,7,-1
 609 834 l 1,8,-1
 930 793 l 1,9,-1
 1057 643 l 1,10,-1
 1048 381 l 1,11,-1
 658 328 l 1,12,-1
 665 301 l 1,13,-1
 948 332 l 1,14,-1
 1039 238 l 1,15,-1
 1046 23 l 1,16,-1
 951 -12 l 1,17,-1
 646 -25 l 1,18,-1
 519 330 l 1,19,-1
 493 332 l 1,20,-1
 447 270 l 1,21,-1
 527 240 l 1,22,-1
 593 31 l 1,23,-1
 564 -20 l 1,24,-1
 100 14 l 1,25,-1
 -5 162 l 1,26,-1
 19 307 l 1,27,-1
 391 389 l 1,28,-1
 395 414 l 1,29,-1
 362 432 l 1,30,-1
 114 381 l 1,31,-1
 5 500 l 1,32,-1
 -20 737 l 1,33,-1
 24 817 l 1,0,-1
EndSplineSet
Validated: 1
EndChar

StartChar: Y
Encoding: 89 89 24
Width: 1024
VWidth: 0
Flags: W
LayerCount: 2
Fore
SplineSet
383 287 m 1,0,-1
 383 295 l 1,1,-1
 38 416 l 1,2,-1
 -27 537 l 1,3,-1
 -27 793 l 1,4,-1
 -5 829 l 1,5,-1
 364 811 l 1,6,-1
 463 428 l 1,7,-1
 510 430 l 1,8,-1
 550 809 l 1,9,-1
 895 844 l 1,10,-1
 1036 766 l 1,11,-1
 916 423 l 1,12,-1
 657 345 l 1,13,-1
 658 338 l 1,14,-1
 959 426 l 1,15,-1
 992 410 l 1,16,-1
 859 80 l 1,17,-1
 539 10 l 1,18,-1
 223 27 l 1,19,-1
 145 86 l 1,20,-1
 100 236 l 1,21,-1
 35 408 l 1,22,-1
 383 287 l 1,0,-1
EndSplineSet
Validated: 1
EndChar

StartChar: Z
Encoding: 90 90 25
Width: 1024
VWidth: 0
Flags: W
LayerCount: 2
Fore
SplineSet
-3 798 m 1,0,-1
 362 813 l 1,1,-1
 808 799 l 1,2,-1
 1013 664 l 1,3,-1
 1011 526 l 1,4,-1
 430 281 l 1,5,-1
 482 262 l 1,6,-1
 728 356 l 1,7,-1
 759 406 l 1,8,-1
 941 479 l 1,9,-1
 1043 325 l 1,10,-1
 1068 153 l 1,11,-1
 886 0 l 1,12,-1
 471 -12 l 1,13,-1
 151 8 l 1,14,-1
 0 172 l 1,15,-1
 0 305 l 1,16,-1
 560 465 l 1,17,-1
 548 494 l 1,18,-1
 443 541 l 1,19,-1
 450 469 l 1,20,-1
 118 369 l 1,21,-1
 -22 476 l 1,22,-1
 -37 734 l 1,23,-1
 -3 798 l 1,0,-1
EndSplineSet
Validated: 1
EndChar

StartChar: q
Encoding: 113 113 26
Width: 1024
VWidth: 0
Flags: W
LayerCount: 2
Fore
SplineSet
360 877 m 1,0,-1
 841 793 l 1,1,-1
 863 758 l 1,2,-1
 706 497 l 1,3,-1
 619 285 l 1,4,-1
 673 111 l 1,5,-1
 688 118 l 1,6,-1
 656 273 l 1,7,-1
 699 354 l 1,8,-1
 816 314 l 1,9,-1
 868 150 l 1,10,-1
 897 182 l 1,11,-1
 793 610 l 1,12,-1
 889 772 l 1,13,-1
 1055 556 l 1,14,-1
 963 130 l 1,15,-1
 879 83 l 1,16,-1
 903 -86 l 1,17,-1
 781 -61 l 1,18,-1
 714 33 l 1,19,-1
 599 2 l 1,20,-1
 62 43 l 1,21,-1
 -40 266 l 1,22,-1
 -23 758 l 1,23,-1
 360 877 l 1,0,-1
EndSplineSet
Validated: 1
EndChar

StartChar: bracketleft
Encoding: 91 91 27
Width: 1024
VWidth: 0
Flags: W
LayerCount: 2
Fore
SplineSet
134 805 m 25,0,-1
 898 805 l 1,1,-1
 884 430 l 1,2,-1
 617 428 l 1,3,-1
 609 115 l 1,4,-1
 876 131 l 1,5,-1
 873 -141 l 1,6,-1
 81 -115 l 1,7,-1
 85 -34 l 1,8,-1
 116 -36 l 1,9,-1
 138 682 l 1,10,-1
 97 688 l 1,11,-1
 105 809 l 1,12,-1
 134 805 l 25,0,-1
EndSplineSet
Validated: 1
EndChar

StartChar: bracketright
Encoding: 93 93 28
Width: 994
VWidth: 0
Flags: W
LayerCount: 2
Fore
SplineSet
909 774 m 1,0,-1
 899 -139 l 1,1,-1
 174 -137 l 1,2,-1
 170 106 l 1,3,-1
 489 96 l 1,4,-1
 506 406 l 1,5,-1
 161 408 l 1,6,-1
 153 780 l 1,7,-1
 909 774 l 1,0,-1
EndSplineSet
Validated: 1
EndChar

StartChar: backslash
Encoding: 92 92 29
Width: 819
VWidth: 0
Flags: W
LayerCount: 2
Fore
SplineSet
44 778 m 1,0,-1
 398 784 l 1,1,-1
 777 170 l 1,2,-1
 785 -74 l 1,3,-1
 429 -70 l 1,4,-1
 40 598 l 1,5,-1
 44 778 l 1,0,-1
EndSplineSet
Validated: 1
EndChar

StartChar: a
Encoding: 97 97 30
Width: 1024
VWidth: 0
Flags: W
LayerCount: 2
Fore
SplineSet
18 451 m 5,0,-1
 -6 526 l 1,1,-1
 102 758 l 1,2,-1
 516 895 l 1,3,-1
 986 797 l 1,4,-1
 1022 659 l 1,5,-1
 1016 340 l 1,6,-1
 792 633 l 1,7,-1
 510 711 l 1,8,-1
 438 559 l 1,9,-1
 475 479 l 1,10,-1
 785 606 l 1,11,-1
 1042 276 l 1,12,-1
 1042 49 l 1,13,-1
 639 -10 l 1,14,-1
 685 262 l 1,15,-1
 716 289 l 1,16,-1
 724 408 l 1,17,-1
 585 408 l 1,18,-1
 618 -27 l 1,19,-1
 606 -70 l 1,20,-1
 16 2 l 1,21,-1
 -37 78 l 1,22,-1
 -25 100 l 1,23,-1
 66 221 l 1,24,-1
 74 391 l 1,25,-1
 51 375 l 1,26,-1
 49 221 l 1,27,-1
 -16 131 l 1,28,-1
 18 451 l 5,0,-1
EndSplineSet
Validated: 1
EndChar

StartChar: b
Encoding: 98 98 31
Width: 1024
VWidth: 0
Flags: W
LayerCount: 2
Fore
SplineSet
102 797 m 1,0,-1
 501 840 l 1,1,-1
 359 692 l 1,2,-1
 523 508 l 1,3,-1
 775 453 l 1,4,-1
 775 532 l 1,5,-1
 546 590 l 1,6,-1
 447 721 l 1,7,-1
 542 840 l 1,8,-1
 946 772 l 1,9,-1
 1002 651 l 1,10,-1
 916 414 l 1,11,-1
 855 420 l 1,12,-1
 773 344 l 1,13,-1
 648 338 l 1,14,-1
 433 123 l 1,15,-1
 538 125 l 1,16,-1
 859 403 l 1,17,-1
 1049 387 l 1,18,-1
 1042 152 l 1,19,-1
 728 0 l 1,20,-1
 644 27 l 1,21,-1
 124 0 l 1,22,-1
 148 143 l 1,23,-1
 122 152 l 1,24,-1
 91 0 l 1,25,-1
 39 0 l 1,26,-1
 -8 281 l 1,27,-1
 20 289 l 1,28,-1
 55 436 l 1,29,-1
 6 455 l 1,30,-1
 0 649 l 1,31,-1
 102 797 l 1,0,-1
EndSplineSet
Validated: 1
EndChar

StartChar: c
Encoding: 99 99 32
Width: 1026
VWidth: 0
Flags: W
LayerCount: 2
Fore
SplineSet
-11 847 m 1,0,-1
 80 849 l 1,1,-1
 91 778 l 1,2,-1
 102 778 l 1,3,-1
 116 813 l 1,4,-1
 131 815 l 1,5,-1
 166 778 l 1,6,-1
 183 776 l 1,7,-1
 209 844 l 1,8,-1
 798 813 l 1,9,-1
 1061 623 l 1,10,-1
 1027 477 l 1,11,-1
 915 297 l 1,12,-1
 840 332 l 1,13,-1
 496 322 l 1,14,-1
 453 377 l 1,15,-1
 258 377 l 1,16,-1
 262 305 l 1,17,-1
 295 266 l 1,18,-1
 332 268 l 1,19,-1
 362 299 l 1,20,-1
 795 309 l 1,21,-1
 1037 213 l 1,22,-1
 845 8 l 1,23,-1
 473 8 l 1,24,-1
 385 -35 l 1,25,-1
 185 8 l 1,26,-1
 14 96 l 1,27,-1
 -36 223 l 1,28,-1
 -11 847 l 1,0,-1
EndSplineSet
Validated: 1
EndChar

StartChar: d
Encoding: 100 100 33
Width: 1026
VWidth: 0
Flags: W
LayerCount: 2
Fore
SplineSet
45 806 m 1,0,-1
 134 805 l 1,1,-1
 159 719 l 1,2,-1
 181 719 l 1,3,-1
 214 807 l 1,4,-1
 498 846 l 1,5,-1
 779 813 l 1,6,-1
 1036 621 l 1,7,-1
 1038 201 l 1,8,-1
 826 8 l 1,9,-1
 680 -18 l 1,10,-1
 113 14 l 1,11,-1
 24 176 l 1,12,-1
 -38 221 l 1,13,-1
 61 598 l 1,14,-1
 627 387 l 1,15,-1
 629 184 l 1,16,-1
 662 145 l 1,17,-1
 733 160 l 1,18,-1
 778 358 l 1,19,-1
 762 600 l 1,20,-1
 711 586 l 1,21,-1
 631 418 l 1,22,-1
 67 625 l 1,23,-1
 45 806 l 1,0,-1
EndSplineSet
Validated: 1
EndChar

StartChar: e
Encoding: 101 101 34
Width: 1026
VWidth: 0
Flags: W
LayerCount: 2
Fore
SplineSet
-8 814 m 25,0,-1
 81 813 l 1,1,-1
 105 727 l 1,2,-1
 128 727 l 1,3,-1
 161 815 l 1,4,-1
 801 848 l 1,5,-1
 1059 741 l 1,6,-1
 1032 549 l 1,7,-1
 891 442 l 1,8,-1
 788 504 l 1,9,-1
 670 510 l 1,10,-1
 635 584 l 1,11,-1
 553 588 l 1,12,-1
 598 487 l 1,13,-1
 767 481 l 1,14,-1
 862 418 l 1,15,-1
 634 287 l 1,16,-1
 332 342 l 1,17,-1
 352 309 l 1,18,-1
 555 270 l 1,19,-1
 667 258 l 1,20,-1
 814 350 l 1,21,-1
 1030 283 l 1,22,-1
 1036 182 l 1,23,-1
 879 -25 l 1,24,-1
 438 -25 l 1,25,-1
 151 12 l 1,26,-1
 -33 227 l 1,27,-1
 -8 814 l 25,0,-1
EndSplineSet
Validated: 1
EndChar

StartChar: f
Encoding: 102 102 35
Width: 1026
VWidth: 0
Flags: W
LayerCount: 2
Fore
SplineSet
5 829 m 25,0,-1
 223 821 l 1,1,-1
 244 793 l 1,2,-1
 262 829 l 1,3,-1
 1012 788 l 1,4,-1
 1076 649 l 1,5,-1
 1059 379 l 1,6,-1
 870 379 l 1,7,-1
 718 559 l 1,8,-1
 436 575 l 1,9,-1
 426 545 l 1,10,-1
 428 400 l 1,11,-1
 455 399 l 1,12,-1
 458 535 l 1,13,-1
 699 522 l 1,14,-1
 848 354 l 1,15,-1
 849 206 l 1,16,-1
 587 205 l 1,17,-1
 589 180 l 1,18,-1
 722 182 l 1,19,-1
 722 0 l 1,20,-1
 49 -18 l 1,21,-1
 -25 33 l 1,22,-1
 -31 516 l 1,23,-1
 5 829 l 25,0,-1
EndSplineSet
Validated: 1
EndChar

StartChar: g
Encoding: 103 103 36
Width: 1026
VWidth: 0
Flags: W
LayerCount: 2
Fore
SplineSet
2 810 m 1,0,-1
 330 816 l 1,1,-1
 350 762 l 1,2,-1
 373 762 l 1,3,-1
 489 830 l 1,4,-1
 989 800 l 1,5,-1
 1050 637 l 1,6,-1
 1016 492 l 1,7,-1
 969 465 l 1,8,-1
 920 494 l 1,9,-1
 658 451 l 1,10,-1
 623 297 l 1,11,-1
 681 244 l 1,12,-1
 881 203 l 1,13,-1
 839 250 l 1,14,-1
 705 291 l 1,15,-1
 719 381 l 1,16,-1
 911 414 l 1,17,-1
 1026 227 l 1,18,-1
 836 -8 l 1,19,-1
 289 41 l 1,20,-1
 161 8 l 1,21,-1
 61 178 l 1,22,-1
 -23 223 l 1,23,-1
 20 471 l 1,24,-1
 2 810 l 1,0,-1
EndSplineSet
Validated: 1
EndChar

StartChar: h
Encoding: 104 104 37
Width: 1024
VWidth: 0
Flags: W
LayerCount: 2
Fore
SplineSet
-24 736 m 25,0,-1
 83 809 l 1,1,-1
 439 805 l 1,2,-1
 463 598 l 1,3,-1
 414 584 l 1,4,-1
 410 557 l 1,5,-1
 560 592 l 1,6,-1
 562 637 l 1,7,-1
 511 641 l 1,8,-1
 498 739 l 1,9,-1
 561 815 l 1,10,-1
 935 788 l 1,11,-1
 1035 692 l 1,12,-1
 1066 126 l 1,13,-1
 933 18 l 1,14,-1
 624 20 l 1,15,-1
 557 143 l 1,16,-1
 557 217 l 1,17,-1
 381 180 l 1,18,-1
 383 139 l 1,19,-1
 477 156 l 1,20,-1
 481 102 l 1,21,-1
 441 -14 l 1,22,-1
 48 14 l 1,23,-1
 -7 74 l 1,24,-1
 -24 736 l 25,0,-1
EndSplineSet
Validated: 1
EndChar

StartChar: i
Encoding: 105 105 38
Width: 1024
VWidth: 0
Flags: W
LayerCount: 2
Fore
SplineSet
-18 782 m 1,0,-1
 461 827 l 1,1,-1
 1033 844 l 1,2,-1
 1068 655 l 1,3,-1
 1035 621 l 1,4,-1
 876 629 l 1,5,-1
 880 586 l 1,6,-1
 950 582 l 1,7,-1
 933 203 l 1,8,-1
 788 199 l 1,9,-1
 795 172 l 1,10,-1
 1055 176 l 1,11,-1
 1022 102 l 1,12,-1
 948 23 l 1,13,-1
 532 -16 l 1,14,-1
 -20 -12 l 1,15,-1
 -43 45 l 1,16,-1
 150 43 l 1,17,-1
 154 80 l 1,18,-1
 121 102 l 1,19,-1
 100 78 l 1,20,-1
 14 86 l 1,21,-1
 23 500 l 1,22,-1
 129 498 l 1,23,-1
 174 522 l 1,24,-1
 172 569 l 1,25,-1
 129 569 l 1,26,-1
 96 537 l 1,27,-1
 -35 559 l 1,28,-1
 -18 782 l 1,0,-1
EndSplineSet
Validated: 1
EndChar

StartChar: j
Encoding: 106 106 39
Width: 1024
VWidth: 0
Flags: W
LayerCount: 2
Fore
SplineSet
56 800 m 25,0,-1
 105 832 l 1,1,-1
 532 808 l 1,2,-1
 902 786 l 1,3,-1
 1035 680 l 1,4,-1
 1043 111 l 1,5,-1
 953 -2 l 1,6,-1
 328 31 l 1,7,-1
 270 10 l 1,8,-1
 68 35 l 1,9,-1
 -22 227 l 1,10,-1
 -22 408 l 1,11,-1
 390 383 l 1,12,-1
 703 174 l 1,13,-1
 753 199 l 1,14,-1
 759 528 l 1,15,-1
 690 547 l 1,16,-1
 687 297 l 1,17,-1
 657 281 l 1,18,-1
 455 467 l 1,19,-1
 104 524 l 1,20,-1
 56 577 l 1,21,-1
 56 800 l 25,0,-1
EndSplineSet
Validated: 1
EndChar

StartChar: k
Encoding: 107 107 40
Width: 1024
VWidth: 0
Flags: W
LayerCount: 2
Fore
SplineSet
39 842 m 1,0,-1
 521 815 l 1,1,-1
 544 745 l 1,2,-1
 325 569 l 1,3,-1
 366 565 l 1,4,-1
 689 817 l 1,5,-1
 965 788 l 1,6,-1
 1034 510 l 1,7,-1
 901 393 l 1,8,-1
 680 461 l 1,9,-1
 637 395 l 1,10,-1
 325 475 l 1,11,-1
 316 444 l 1,12,-1
 649 350 l 1,13,-1
 694 416 l 1,14,-1
 1040 315 l 1,15,-1
 1040 145 l 1,16,-1
 918 2 l 1,17,-1
 577 12 l 1,18,-1
 521 68 l 1,19,-1
 362 262 l 1,20,-1
 336 250 l 1,21,-1
 478 49 l 1,22,-1
 472 14 l 1,23,-1
 49 18 l 1,24,-1
 -8 96 l 1,25,-1
 -16 147 l 1,26,-1
 37 207 l 1,27,-1
 49 481 l 1,28,-1
 -12 553 l 1,29,-1
 -22 707 l 1,30,-1
 39 842 l 1,0,-1
EndSplineSet
Validated: 1
EndChar

StartChar: l
Encoding: 108 108 41
Width: 1024
VWidth: 0
Flags: W
LayerCount: 2
Fore
SplineSet
94 821 m 25,0,-1
 390 795 l 1,1,-1
 667 842 l 1,2,-1
 703 776 l 1,3,-1
 599 160 l 1,4,-1
 560 156 l 1,5,-1
 556 137 l 1,6,-1
 669 135 l 1,7,-1
 775 326 l 1,8,-1
 755 360 l 1,9,-1
 687 395 l 1,10,-1
 720 516 l 1,11,-1
 877 539 l 1,12,-1
 1038 416 l 1,13,-1
 1024 86 l 1,14,-1
 981 41 l 1,15,-1
 472 0 l 1,16,-1
 72 35 l 1,17,-1
 -18 150 l 1,18,-1
 15 459 l 1,19,-1
 -16 702 l 1,20,-1
 94 821 l 25,0,-1
EndSplineSet
Validated: 1
EndChar

StartChar: m
Encoding: 109 109 42
Width: 1024
VWidth: 0
Flags: W
LayerCount: 2
Fore
SplineSet
27 823 m 1,0,-1
 345 806 l 1,1,-1
 540 539 l 1,2,-1
 509 489 l 1,3,-1
 560 430 l 1,4,-1
 606 514 l 1,5,-1
 442 741 l 1,6,-1
 686 850 l 1,7,-1
 870 819 l 1,8,-1
 989 694 l 1,9,-1
 924 223 l 1,10,-1
 946 219 l 1,11,-1
 985 518 l 1,12,-1
 987 553 l 1,13,-1
 1047 600 l 1,14,-1
 1081 512 l 1,15,-1
 1016 436 l 1,16,-1
 1051 125 l 1,17,-1
 953 23 l 1,18,-1
 520 15 l 1,19,-1
 713 508 l 1,20,-1
 676 516 l 1,21,-1
 582 293 l 1,22,-1
 520 287 l 1,23,-1
 419 476 l 1,24,-1
 384 457 l 1,25,-1
 461 289 l 1,26,-1
 417 53 l 1,27,-1
 378 14 l 1,28,-1
 117 41 l 1,29,-1
 -23 141 l 1,30,-1
 -23 354 l 1,31,-1
 2 379 l 1,32,-1
 60 668 l 1,33,-1
 27 700 l 1,34,-1
 27 823 l 1,0,-1
EndSplineSet
Validated: 1
EndChar

StartChar: n
Encoding: 110 110 43
Width: 1024
VWidth: 0
Flags: W
LayerCount: 2
Fore
SplineSet
-28 776 m 25,0,-1
 14 807 l 1,1,-1
 725 412 l 1,2,-1
 702 377 l 1,3,-1
 823 313 l 1,4,-1
 786 418 l 1,5,-1
 268 696 l 1,6,-1
 289 803 l 1,7,-1
 705 834 l 1,8,-1
 1038 774 l 1,9,-1
 1044 600 l 1,10,-1
 1016 551 l 1,11,-1
 1036 80 l 1,12,-1
 989 33 l 1,13,-1
 725 -27 l 1,14,-1
 726 158 l 1,15,-1
 526 362 l 1,16,-1
 449 365 l 1,17,-1
 660 156 l 1,18,-1
 662 -33 l 1,19,-1
 111 25 l 1,20,-1
 -6 96 l 1,21,-1
 -16 383 l 1,22,-1
 12 403 l 1,23,-1
 18 569 l 1,24,-1
 -28 610 l 1,25,-1
 -28 776 l 25,0,-1
EndSplineSet
Validated: 1
EndChar

StartChar: o
Encoding: 111 111 44
Width: 1024
VWidth: 0
Flags: W
LayerCount: 2
Fore
SplineSet
-40 698 m 25,0,-1
 157 805 l 1,1,-1
 381 844 l 1,2,-1
 428 549 l 1,3,-1
 392 430 l 1,4,-1
 408 127 l 1,5,-1
 451 111 l 1,6,-1
 492 143 l 1,7,-1
 566 506 l 1,8,-1
 514 526 l 1,9,-1
 480 526 l 1,10,-1
 447 496 l 1,11,-1
 449 571 l 1,12,-1
 410 854 l 1,13,-1
 684 827 l 1,14,-1
 872 776 l 1,15,-1
 1042 612 l 1,16,-1
 1024 53 l 1,17,-1
 969 -2 l 1,18,-1
 328 -37 l 1,19,-1
 -30 127 l 1,20,-1
 -40 698 l 25,0,-1
EndSplineSet
Validated: 1
EndChar

StartChar: p
Encoding: 112 112 45
Width: 1024
VWidth: 0
Flags: W
LayerCount: 2
Fore
SplineSet
-24 688 m 25,0,-1
 55 788 l 1,1,-1
 485 842 l 1,2,-1
 487 784 l 1,3,-1
 715 526 l 1,4,-1
 735 414 l 1,5,-1
 809 367 l 1,6,-1
 840 496 l 1,7,-1
 791 612 l 1,8,-1
 741 618 l 1,9,-1
 721 547 l 1,10,-1
 508 795 l 1,11,-1
 510 846 l 1,12,-1
 920 801 l 1,13,-1
 967 766 l 1,14,-1
 1047 418 l 1,15,-1
 1016 332 l 1,16,-1
 769 184 l 1,17,-1
 637 276 l 1,18,-1
 557 303 l 1,19,-1
 561 276 l 1,20,-1
 631 250 l 1,21,-1
 876 63 l 1,22,-1
 853 -12 l 1,23,-1
 430 -27 l 1,24,-1
 -18 27 l 1,25,-1
 0 82 l 1,26,-1
 8 295 l 1,27,-1
 27 311 l 1,28,-1
 29 360 l 1,29,-1
 -24 385 l 1,30,-1
 -24 688 l 25,0,-1
EndSplineSet
Validated: 1
EndChar

StartChar: r
Encoding: 114 114 46
Width: 1024
VWidth: 0
Flags: W
LayerCount: 2
Fore
SplineSet
45 776 m 1,0,-1
 180 838 l 1,1,-1
 756 856 l 1,2,-1
 1004 705 l 1,3,-1
 1040 352 l 1,4,-1
 738 302 l 1,5,-1
 740 284 l 1,6,-1
 782 254 l 1,7,-1
 833 274 l 1,8,-1
 850 309 l 1,9,-1
 932 324 l 1,10,-1
 1032 260 l 1,11,-1
 1006 -23 l 1,12,-1
 506 2 l 1,13,-1
 551 45 l 1,14,-1
 477 414 l 1,15,-1
 743 463 l 1,16,-1
 750 441 l 1,17,-1
 784 449 l 1,18,-1
 766 535 l 1,19,-1
 502 498 l 1,20,-1
 514 455 l 1,21,-1
 446 434 l 1,22,-1
 479 264 l 1,23,-1
 444 231 l 1,24,-1
 493 18 l 1,25,-1
 324 -23 l 1,26,-1
 16 12 l 1,27,-1
 -23 53 l 1,28,-1
 -33 254 l 1,29,-1
 -2 348 l 1,30,-1
 20 350 l 1,31,-1
 66 309 l 1,32,-1
 94 313 l 1,33,-1
 -6 407 l 1,34,-1
 45 776 l 1,0,-1
EndSplineSet
Validated: 1
EndChar

StartChar: s
Encoding: 115 115 47
Width: 1024
VWidth: 0
Flags: W
LayerCount: 2
Fore
SplineSet
346 295 m 1,0,-1
 501 420 l 1,1,-1
 715 291 l 1,2,-1
 719 319 l 1,3,-1
 492 454 l 1,4,-1
 337 343 l 1,5,-1
 109 401 l 1,6,-1
 -46 625 l 1,7,-1
 42 809 l 1,8,-1
 465 838 l 1,9,-1
 948 774 l 1,10,-1
 1034 743 l 1,11,-1
 1034 561 l 1,12,-1
 930 449 l 1,13,-1
 594 551 l 1,14,-1
 563 608 l 1,15,-1
 513 606 l 1,16,-1
 524 526 l 1,17,-1
 950 395 l 1,18,-1
 1075 162 l 1,19,-1
 618 -23 l 1,20,-1
 22 12 l 1,21,-1
 -52 266 l 1,22,-1
 29 373 l 1,23,-1
 172 340 l 1,24,-1
 346 295 l 1,0,-1
EndSplineSet
Validated: 1
EndChar

StartChar: t
Encoding: 116 116 48
Width: 1024
VWidth: 0
Flags: W
LayerCount: 2
Fore
SplineSet
-19 840 m 1,0,-1
 483 868 l 1,1,-1
 1022 831 l 1,2,-1
 1047 366 l 1,3,-1
 822 319 l 1,4,-1
 766 495 l 1,5,-1
 733 493 l 1,6,-1
 783 275 l 1,7,-1
 886 303 l 1,8,-1
 1000 214 l 1,9,-1
 974 44 l 1,10,-1
 524 0 l 1,11,-1
 116 10 l 1,12,-1
 61 38 l 1,13,-1
 -12 242 l 1,14,-1
 4 334 l 1,15,-1
 214 399 l 1,16,-1
 340 665 l 1,17,-1
 307 677 l 1,18,-1
 195 432 l 1,19,-1
 4 420 l 1,20,-1
 -38 529 l 1,21,-1
 -19 840 l 1,0,-1
EndSplineSet
Validated: 1
EndChar

StartChar: u
Encoding: 117 117 49
Width: 1024
VWidth: 0
Flags: W
LayerCount: 2
Fore
SplineSet
3 807 m 25,0,-1
 115 809 l 1,1,-1
 156 764 l 1,2,-1
 203 854 l 1,3,-1
 565 803 l 1,4,-1
 575 766 l 1,5,-1
 485 318 l 1,6,-1
 426 306 l 1,7,-1
 411 274 l 1,8,-1
 528 212 l 1,9,-1
 586 228 l 1,10,-1
 604 274 l 1,11,-1
 546 318 l 1,12,-1
 640 733 l 1,13,-1
 703 801 l 1,14,-1
 930 799 l 1,15,-1
 1049 700 l 1,16,-1
 1044 266 l 1,17,-1
 930 12 l 1,18,-1
 561 -20 l 1,19,-1
 211 14 l 1,20,-1
 160 70 l 1,21,-1
 72 0 l 1,22,-1
 0 49 l 1,23,-1
 -43 709 l 1,24,-1
 3 807 l 25,0,-1
EndSplineSet
Validated: 1
EndChar

StartChar: v
Encoding: 118 118 50
Width: 1024
VWidth: 0
Flags: W
LayerCount: 2
Fore
SplineSet
66 817 m 25,0,-1
 131 831 l 1,1,-1
 428 778 l 1,2,-1
 506 629 l 1,3,-1
 514 500 l 1,4,-1
 465 299 l 1,5,-1
 514 236 l 1,6,-1
 538 375 l 1,7,-1
 526 612 l 1,8,-1
 637 819 l 1,9,-1
 989 815 l 1,10,-1
 1048 614 l 1,11,-1
 991 205 l 1,12,-1
 508 -59 l 1,13,-1
 487 -57 l 1,14,-1
 -16 215 l 1,15,-1
 -33 635 l 1,16,-1
 66 817 l 25,0,-1
EndSplineSet
Validated: 1
EndChar

StartChar: w
Encoding: 119 119 51
Width: 1024
VWidth: 0
Flags: W
LayerCount: 2
Fore
SplineSet
-25 596 m 25,0,-1
 199 805 l 1,1,-1
 412 848 l 1,2,-1
 401 580 l 1,3,-1
 307 569 l 1,4,-1
 170 172 l 1,5,-1
 197 172 l 1,6,-1
 317 463 l 1,7,-1
 387 451 l 1,8,-1
 496 242 l 1,9,-1
 514 260 l 1,10,-1
 446 563 l 1,11,-1
 483 842 l 1,12,-1
 900 821 l 1,13,-1
 1046 518 l 1,14,-1
 989 29 l 1,15,-1
 727 -53 l 1,16,-1
 350 -55 l 1,17,-1
 373 334 l 1,18,-1
 338 348 l 1,19,-1
 301 -20 l 1,20,-1
 49 39 l 1,21,-1
 -23 524 l 1,22,-1
 -25 596 l 25,0,-1
EndSplineSet
Validated: 1
EndChar

StartChar: x
Encoding: 120 120 52
Width: 1024
VWidth: 0
Flags: W
LayerCount: 2
Fore
SplineSet
75 881 m 1,0,-1
 400 858 l 1,1,-1
 587 766 l 1,2,-1
 527 596 l 1,3,-1
 447 565 l 1,4,-1
 493 504 l 1,5,-1
 519 506 l 1,6,-1
 640 821 l 1,7,-1
 945 809 l 1,8,-1
 1039 774 l 1,9,-1
 1039 598 l 1,10,-1
 948 504 l 1,11,-1
 665 535 l 1,12,-1
 658 508 l 1,13,-1
 1048 455 l 1,14,-1
 1057 193 l 1,15,-1
 930 43 l 1,16,-1
 609 2 l 1,17,-1
 456 133 l 1,18,-1
 538 330 l 1,19,-1
 560 399 l 1,20,-1
 522 398 l 1,21,-1
 422 160 l 1,22,-1
 379 20 l 1,23,-1
 261 -20 l 1,24,-1
 24 18 l 1,25,-1
 -20 98 l 1,26,-1
 5 336 l 1,27,-1
 114 455 l 1,28,-1
 417 418 l 1,29,-1
 450 436 l 1,30,-1
 445 461 l 1,31,-1
 19 528 l 1,32,-1
 -5 674 l 1,33,-1
 75 881 l 1,0,-1
EndSplineSet
Validated: 1
EndChar

StartChar: y
Encoding: 121 121 53
Width: 1024
VWidth: 0
Flags: W
LayerCount: 2
Fore
SplineSet
113 827 m 1,0,-1
 498 907 l 1,1,-1
 422 510 l 1,2,-1
 475 440 l 1,3,-1
 555 465 l 1,4,-1
 553 881 l 1,5,-1
 1013 813 l 1,6,-1
 1034 776 l 1,7,-1
 1034 520 l 1,8,-1
 973 422 l 1,9,-1
 625 279 l 1,10,-1
 625 270 l 1,11,-1
 973 391 l 1,12,-1
 844 168 l 1,13,-1
 862 70 l 1,14,-1
 784 10 l 1,15,-1
 199 14 l 1,16,-1
 184 127 l 1,17,-1
 207 217 l 1,18,-1
 15 393 l 1,19,-1
 48 410 l 1,20,-1
 349 322 l 1,21,-1
 350 329 l 1,22,-1
 78 442 l 1,23,-1
 -29 750 l 1,24,-1
 113 827 l 1,0,-1
EndSplineSet
Validated: 1
EndChar

StartChar: z
Encoding: 122 122 54
Width: 1024
VWidth: 0
Flags: W
LayerCount: 2
Fore
SplineSet
114 813 m 1,0,-1
 639 836 l 1,1,-1
 849 805 l 1,2,-1
 999 641 l 1,3,-1
 999 508 l 1,4,-1
 439 348 l 1,5,-1
 452 319 l 1,6,-1
 556 272 l 1,7,-1
 550 344 l 1,8,-1
 882 444 l 1,9,-1
 1021 337 l 1,10,-1
 1036 79 l 1,11,-1
 1002 15 l 1,12,-1
 516 -20 l 1,13,-1
 191 14 l 1,14,-1
 -13 150 l 1,15,-1
 -11 287 l 1,16,-1
 569 532 l 1,17,-1
 517 551 l 1,18,-1
 271 457 l 1,19,-1
 241 408 l 1,20,-1
 58 334 l 1,21,-1
 -44 488 l 1,22,-1
 -69 660 l 1,23,-1
 114 813 l 1,0,-1
EndSplineSet
Validated: 1
EndChar

StartChar: exclam
Encoding: 33 33 55
Width: 763
VWidth: 0
Flags: W
LayerCount: 2
Fore
SplineSet
101 722 m 1,0,-1
 450 830 l 1,1,-1
 716 786 l 1,2,-1
 603 284 l 1,3,-1
 401 242 l 1,4,-1
 413 179 l 1,5,-1
 640 218 l 1,6,-1
 693 124 l 1,7,-1
 502 -53 l 1,8,-1
 208 -51 l 1,9,-1
 23 110 l 1,10,-1
 79 194 l 1,11,-1
 376 183 l 1,12,-1
 370 234 l 1,13,-1
 113 267 l 1,14,-1
 101 722 l 1,0,-1
EndSplineSet
Validated: 1
EndChar

StartChar: quotedbl
Encoding: 34 34 56
Width: 563
VWidth: 0
Flags: W
LayerCount: 2
Fore
SplineSet
47 609 m 25,0,-1
 307 858 l 1,1,-1
 377 849 l 1,2,-1
 377 759 l 1,3,-1
 247 613 l 1,4,-1
 277 584 l 1,5,-1
 461 753 l 1,6,-1
 516 722 l 1,7,-1
 520 596 l 1,8,-1
 199 271 l 1,9,-1
 101 357 l 1,10,-1
 237 543 l 1,11,-1
 230 573 l 1,12,-1
 100 417 l 1,13,-1
 80 432 l 1,14,-1
 47 609 l 25,0,-1
EndSplineSet
Validated: 1
EndChar

StartChar: numbersign
Encoding: 35 35 57
Width: 1024
VWidth: 0
Flags: W
LayerCount: 2
Fore
SplineSet
349 779 m 1,0,-1
 563 793 l 1,1,-1
 572 723 l 1,2,-1
 560 656 l 1,3,-1
 668 650 l 1,4,-1
 707 803 l 1,5,-1
 838 812 l 1,6,-1
 846 738 l 1,7,-1
 833 640 l 1,8,-1
 893 636 l 1,9,-1
 982 493 l 1,10,-1
 909 476 l 1,11,-1
 812 474 l 1,12,-1
 800 378 l 1,13,-1
 993 384 l 1,14,-1
 1063 278 l 1,15,-1
 987 262 l 1,16,-1
 780 237 l 1,17,-1
 749 43 l 1,18,-1
 655 24 l 1,19,-1
 528 97 l 1,20,-1
 557 211 l 1,21,-1
 500 205 l 1,22,-1
 460 204 l 1,23,-1
 409 60 l 1,24,-1
 284 42 l 1,25,-1
 148 113 l 1,26,-1
 175 201 l 1,27,-1
 107 200 l 1,28,-1
 54 261 l 1,29,-1
 91 358 l 1,30,-1
 223 362 l 1,31,-1
 254 465 l 1,32,-1
 145 465 l 1,33,-1
 82 547 l 1,34,-1
 142 681 l 1,35,-1
 317 671 l 1,36,-1
 349 779 l 1,0,-1
622 469 m 1,37,-1
 526 467 l 1,38,-1
 509 370 l 1,39,-1
 598 373 l 1,40,-1
 622 469 l 1,37,-1
EndSplineSet
Validated: 1
EndChar

StartChar: dollar
Encoding: 36 36 58
Width: 1024
VWidth: 0
Flags: W
LayerCount: 2
Fore
SplineSet
648 917 m 1,0,-1
 717 851 l 1,1,-1
 684 710 l 1,2,-1
 956 571 l 1,3,-1
 998 353 l 1,4,-1
 870 202 l 1,5,-1
 689 248 l 1,6,-1
 663 488 l 1,7,-1
 633 495 l 1,8,-1
 600 355 l 1,9,-1
 658 331 l 1,10,-1
 672 225 l 1,11,-1
 872 178 l 1,12,-1
 918 229 l 1,13,-1
 958 164 l 1,14,-1
 863 -29 l 1,15,-1
 504 -54 l 1,16,-1
 459 -246 l 1,17,-1
 301 -178 l 1,18,-1
 298 -68 l 1,19,-1
 251 -71 l 1,20,-1
 11 327 l 1,21,-1
 81 382 l 1,22,-1
 260 364 l 1,23,-1
 314 181 l 1,24,-1
 356 169 l 1,25,-1
 392 261 l 1,26,-1
 301 285 l 1,27,-1
 217 575 l 1,28,-1
 525 791 l 1,29,-1
 587 760 l 1,30,-1
 648 917 l 1,0,-1
496 528 m 1,31,-1
 364 560 l 1,32,-1
 305 512 l 1,33,-1
 310 444 l 1,34,-1
 448 403 l 1,35,-1
 496 528 l 1,31,-1
544 117 m 1,36,-1
 616 97 l 1,37,-1
 683 157 l 1,38,-1
 676 187 l 1,39,-1
 568 215 l 1,40,-1
 544 117 l 1,36,-1
EndSplineSet
Validated: 1
EndChar

StartChar: percent
Encoding: 37 37 59
Width: 839
VWidth: 0
Flags: W
LayerCount: 2
Fore
SplineSet
630 329 m 29,0,-1
 755 271 l 1,1,-1
 763 93 l 1,2,-1
 734 6 l 1,3,-1
 560 1 l 1,4,-1
 508 118 l 1,5,-1
 630 329 l 29,0,-1
134 691 m 5,6,-1
 260 675 l 1,7,-1
 286 570 l 1,8,-1
 149 388 l 1,9,-1
 96 401 l 1,10,-1
 39 608 l 1,11,-1
 134 691 l 5,6,-1
427 689 m 29,12,-1
 690 684 l 1,13,-1
 742 617 l 1,14,-1
 389 1 l 1,15,-1
 217 10 l 1,16,-1
 90 192 l 1,17,-1
 427 689 l 29,12,-1
EndSplineSet
Validated: 1
EndChar

StartChar: asciicircum
Encoding: 94 94 60
Width: 827
VWidth: 0
Flags: W
LayerCount: 2
Fore
SplineSet
13 524 m 25,0,-1
 392 838 l 1,1,-1
 781 514 l 1,2,-1
 536 514 l 1,3,-1
 402 778 l 1,4,-1
 286 510 l 1,5,-1
 13 524 l 25,0,-1
EndSplineSet
Validated: 1
EndChar

StartChar: underscore
Encoding: 95 95 61
Width: 983
VWidth: 0
Flags: W
LayerCount: 2
Fore
SplineSet
65 -63 m 25,0,-1
 97 -37 l 1,1,-1
 804 -33 l 1,2,-1
 845 -55 l 1,3,-1
 790 -246 l 1,4,-1
 101 -229 l 1,5,-1
 65 -63 l 25,0,-1
EndSplineSet
Validated: 1
EndChar

StartChar: grave
Encoding: 96 96 62
Width: 591
VWidth: 0
Flags: W
LayerCount: 2
Fore
SplineSet
228 838 m 25,0,-1
 366 827 l 1,1,-1
 521 465 l 1,2,-1
 437 418 l 1,3,-1
 351 432 l 1,4,-1
 261 588 l 1,5,-1
 83 623 l 1,6,-1
 40 768 l 1,7,-1
 228 838 l 25,0,-1
EndSplineSet
Validated: 1
EndChar

StartChar: ampersand
Encoding: 38 38 63
Width: 991
VWidth: 0
Flags: W
LayerCount: 2
Fore
SplineSet
73 760 m 25,0,-1
 374 580 l 1,1,-1
 443 395 l 1,2,-1
 509 567 l 1,3,-1
 853 756 l 1,4,-1
 974 559 l 1,5,-1
 650 426 l 1,6,-1
 701 371 l 1,7,-1
 822 164 l 1,8,-1
 591 -96 l 1,9,-1
 265 -72 l 1,10,-1
 163 172 l 1,11,-1
 392 260 l 1,12,-1
 402 238 l 1,13,-1
 355 70 l 1,14,-1
 478 16 l 1,15,-1
 566 184 l 1,16,-1
 462 311 l 1,17,-1
 419 268 l 1,18,-1
 402 295 l 1,19,-1
 171 201 l 1,20,-1
 239 434 l 1,21,-1
 15 571 l 1,22,-1
 73 760 l 25,0,-1
EndSplineSet
Validated: 1
EndChar

StartChar: quotesingle
Encoding: 39 39 64
Width: 483
VWidth: 0
Flags: W
LayerCount: 2
Fore
SplineSet
36 811 m 25,0,-1
 91 967 l 1,1,-1
 298 918 l 1,2,-1
 423 770 l 1,3,-1
 376 600 l 1,4,-1
 155 422 l 1,5,-1
 44 524 l 1,6,-1
 138 735 l 1,7,-1
 36 811 l 25,0,-1
EndSplineSet
Validated: 1
EndChar

StartChar: parenleft
Encoding: 40 40 65
Width: 525
VWidth: 0
Flags: W
LayerCount: 2
Fore
SplineSet
91 511 m 25,0,-1
 162 689 l 1,1,-1
 404 805 l 1,2,-1
 447 808 l 1,3,-1
 462 642 l 1,4,-1
 279 571 l 1,5,-1
 172 382 l 1,6,-1
 187 183 l 1,7,-1
 312 7 l 1,8,-1
 379 -23 l 1,9,-1
 331 -161 l 1,10,-1
 136 -97 l 1,11,-1
 52 296 l 1,12,-1
 91 511 l 25,0,-1
EndSplineSet
Validated: 1
EndChar

StartChar: parenright
Encoding: 41 41 66
Width: 583
VWidth: 0
Flags: W
LayerCount: 2
Fore
SplineSet
62 879 m 25,0,-1
 374 799 l 1,1,2
 491 537 491 537 493 535 c 2,3,4
 546 201 l 1,5,-1
 470 -4 l 1,6,-1
 267 -152 l 1,7,-1
 28 -145 l 1,8,-1
 62 53 l 1,9,-1
 261 72 l 1,10,-1
 355 137 l 1,11,12
 370 445 370 445 370 449 c 0,13,14
 370 451 370 451 319 509.5 c 128,-1,15
 268 568 268 568 216.5 626 c 2,16,-1
 165 684 l 1,17,-1
 56 715 l 1,18,-1
 62 879 l 25,0,-1
EndSplineSet
Validated: 1
EndChar

StartChar: asterisk
Encoding: 42 42 67
Width: 802
VWidth: 0
Flags: W
LayerCount: 2
Fore
SplineSet
333 336 m 25,0,-1
 284 520 l 1,1,-1
 544 532 l 1,2,-1
 503 336 l 1,3,-1
 636 461 l 1,4,-1
 742 336 l 1,5,-1
 570 266 l 1,6,-1
 773 256 l 1,7,-1
 767 76 l 1,8,-1
 564 121 l 1,9,-1
 685 -35 l 1,10,-1
 523 -102 l 1,11,-1
 445 72 l 1,12,-1
 439 -139 l 1,13,-1
 212 -129 l 1,14,-1
 302 92 l 1,15,-1
 126 -37 l 1,16,-1
 15 129 l 1,17,-1
 249 197 l 1,18,-1
 38 322 l 1,19,-1
 159 502 l 1,20,-1
 333 336 l 25,0,-1
EndSplineSet
Validated: 1
EndChar

StartChar: plus
Encoding: 43 43 68
Width: 731
VWidth: 0
Flags: W
LayerCount: 2
Fore
SplineSet
263 336 m 25,0,-1
 259 510 l 1,1,-1
 472 512 l 1,2,3
 476 303 476 303 476 301 c 0,4,5
 476 300 476 300 588.5 299 c 128,-1,6
 701 298 701 298 701 297 c 2,7,-1
 710 80 l 1,8,-1
 490 88 l 1,9,-1
 488 -84 l 1,10,-1
 251 -82 l 1,11,-1
 261 82 l 1,12,-1
 32 100 l 1,13,-1
 22 336 l 1,14,-1
 263 336 l 25,0,-1
EndSplineSet
Validated: 1
EndChar

StartChar: comma
Encoding: 44 44 69
Width: 460
VWidth: 0
Flags: W
LayerCount: 2
Fore
SplineSet
136 57 m 25,0,-1
 50 76 l 1,1,-1
 13 203 l 1,2,-1
 134 305 l 1,3,-1
 353 299 l 1,4,-1
 400 123 l 1,5,-1
 130 -135 l 1,6,-1
 73 -109 l 1,7,-1
 204 76 l 1,8,-1
 191 119 l 1,9,-1
 136 57 l 25,0,-1
EndSplineSet
Validated: 1
EndChar

StartChar: hyphen
Encoding: 45 45 70
Width: 616
VWidth: 0
Flags: W
LayerCount: 2
Fore
SplineSet
15 231 m 25,0,-1
 546 242 l 1,1,-1
 581 201 l 1,2,-1
 570 43 l 1,3,-1
 58 51 l 1,4,-1
 26 74 l 1,5,-1
 15 231 l 25,0,-1
EndSplineSet
Validated: 1
EndChar

StartChar: period
Encoding: 46 46 71
Width: 339
VWidth: 0
Flags: W
LayerCount: 2
Fore
SplineSet
54 176 m 25,0,-1
 169 190 l 1,1,-1
 318 125 l 1,2,-1
 308 -25 l 1,3,-1
 214 -82 l 1,4,-1
 101 -70 l 1,5,-1
 5 35 l 1,6,-1
 54 176 l 25,0,-1
EndSplineSet
Validated: 1
EndChar

StartChar: slash
Encoding: 47 47 72
Width: 860
VWidth: 0
Flags: W
LayerCount: 2
Fore
SplineSet
452 760 m 25,0,-1
 828 752 l 1,1,-1
 845 657 l 1,2,-1
 464 90 l 1,3,-1
 388 49 l 1,4,-1
 62 59 l 1,5,-1
 19 88 l 1,6,-1
 452 760 l 25,0,-1
EndSplineSet
Validated: 1
EndChar

StartChar: zero
Encoding: 48 48 73
Width: 917
VWidth: 0
Flags: W
LayerCount: 2
Fore
SplineSet
398 786 m 1,0,-1
 710 764 l 1,1,-1
 880 414 l 1,2,-1
 830 104 l 1,3,-1
 544 -82 l 1,4,-1
 214 -57 l 1,5,-1
 133 91 l 1,6,-1
 466 402 l 1,7,-1
 480 389 l 1,8,-1
 496 360 l 1,9,-1
 547 359 l 1,10,-1
 625 407 l 1,11,-1
 605 492 l 1,12,-1
 561 530 l 1,13,-1
 498 513 l 1,14,-1
 485 398 l 1,15,-1
 463 419 l 1,16,-1
 126 102 l 1,17,-1
 34 299 l 1,18,-1
 58 575 l 1,19,-1
 210 733 l 1,20,-1
 398 786 l 1,0,-1
EndSplineSet
Validated: 1
EndChar

StartChar: one
Encoding: 49 49 74
Width: 821
VWidth: 0
Flags: W
LayerCount: 2
Fore
SplineSet
-9 545 m 1,0,-1
 219 799 l 1,1,-1
 768 823 l 1,2,-1
 722 184 l 1,3,-1
 793 125 l 1,4,-1
 791 -63 l 1,5,-1
 103 -6 l 1,6,-1
 126 156 l 1,7,-1
 241 160 l 1,8,-1
 304 530 l 1,9,-1
 108 428 l 1,10,-1
 -11 444 l 1,11,-1
 -9 545 l 1,0,-1
EndSplineSet
Validated: 1
EndChar

StartChar: two
Encoding: 50 50 75
Width: 800
VWidth: 0
Flags: W
LayerCount: 2
Fore
SplineSet
104 240 m 1,0,-1
 -5 598 l 1,1,-1
 196 825 l 1,2,-1
 505 850 l 1,3,-1
 739 768 l 1,4,-1
 767 477 l 1,5,-1
 379 236 l 1,6,-1
 391 201 l 1,7,-1
 515 219 l 1,8,-1
 531 289 l 1,9,-1
 782 416 l 1,10,-1
 834 305 l 1,11,-1
 741 -27 l 1,12,-1
 369 -45 l 1,13,-1
 36 -37 l 1,14,-1
 27 111 l 1,15,-1
 564 530 l 1,16,-1
 531 618 l 1,17,-1
 395 545 l 1,18,-1
 412 446 l 1,19,-1
 104 240 l 1,0,-1
EndSplineSet
Validated: 1
EndChar

StartChar: three
Encoding: 51 51 76
Width: 792
VWidth: 0
Flags: W
LayerCount: 2
Fore
SplineSet
28 647 m 1,0,-1
 93 786 l 1,1,-1
 462 838 l 1,2,-1
 738 610 l 1,3,-1
 761 477 l 1,4,-1
 645 381 l 1,5,-1
 734 319 l 1,6,-1
 785 98 l 1,7,-1
 712 -63 l 1,8,-1
 239 -68 l 1,9,-1
 15 90 l 1,10,-1
 15 401 l 1,11,-1
 140 406 l 1,12,-1
 455 281 l 1,13,-1
 497 339 l 1,14,-1
 283 410 l 1,15,-1
 277 428 l 1,16,-1
 496 475 l 1,17,-1
 459 555 l 1,18,-1
 378 545 l 1,19,-1
 390 479 l 1,20,-1
 182 444 l 1,21,-1
 28 647 l 1,0,-1
EndSplineSet
Validated: 1
EndChar

StartChar: four
Encoding: 52 52 77
Width: 796
VWidth: 0
Flags: W
LayerCount: 2
Fore
SplineSet
95 647 m 5,0,-1
 593 854 l 1,1,-1
 677 840 l 1,2,-1
 638 768 l 1,3,-1
 371 438 l 1,4,-1
 378 387 l 1,5,-1
 441 395 l 1,6,-1
 548 610 l 1,7,-1
 724 598 l 1,8,-1
 720 449 l 1,9,-1
 826 442 l 1,10,-1
 810 276 l 1,11,-1
 718 264 l 1,12,-1
 736 -31 l 1,13,-1
 650 -68 l 1,14,-1
 336 -51 l 1,15,-1
 372 238 l 1,16,-1
 82 205 l 1,17,-1
 22 373 l 1,18,-1
 95 647 l 5,0,-1
EndSplineSet
Validated: 1
EndChar

StartChar: five
Encoding: 53 53 78
Width: 790
VWidth: 0
Flags: W
LayerCount: 2
Fore
SplineSet
90 802 m 25,0,-1
 97 828 l 1,1,-1
 607 817 l 1,2,-1
 791 594 l 1,3,-1
 749 475 l 1,4,-1
 551 582 l 1,5,-1
 431 568 l 1,6,-1
 406 512 l 1,7,-1
 434 459 l 1,8,-1
 515 444 l 1,9,-1
 543 477 l 1,10,-1
 748 367 l 1,11,-1
 719 91 l 1,12,-1
 478 -53 l 1,13,-1
 71 -35 l 1,14,-1
 -73 236 l 1,15,-1
 76 276 l 1,16,-1
 199 262 l 1,17,-1
 422 191 l 1,18,-1
 474 227 l 1,19,-1
 470 270 l 1,20,-1
 150 355 l 1,21,-1
 -17 477 l 1,22,-1
 90 802 l 25,0,-1
EndSplineSet
Validated: 1
EndChar

StartChar: six
Encoding: 54 54 79
Width: 768
VWidth: 0
Flags: W
LayerCount: 2
Fore
SplineSet
60 649 m 1,0,-1
 373 840 l 1,1,-1
 724 774 l 1,2,-1
 739 587 l 1,3,-1
 522 524 l 1,4,-1
 414 557 l 1,5,-1
 300 534 l 1,6,-1
 269 498 l 1,7,-1
 253 458 l 1,8,-1
 304 317 l 1,9,-1
 391 214 l 1,10,-1
 436 187 l 1,11,-1
 487 234 l 1,12,-1
 440 330 l 1,13,-1
 401 326 l 1,14,-1
 323 315 l 1,15,-1
 313 318 l 1,16,-1
 265 456 l 1,17,-1
 660 353 l 1,18,-1
 745 141 l 1,19,-1
 609 -44 l 1,20,-1
 166 -32 l 1,21,-1
 22 286 l 1,22,-1
 60 649 l 1,0,-1
EndSplineSet
Validated: 1
EndChar

StartChar: seven
Encoding: 55 55 80
Width: 905
VWidth: 0
Flags: W
LayerCount: 2
Fore
SplineSet
9 627 m 1,0,-1
 93 778 l 1,1,-1
 712 823 l 1,2,-1
 888 674 l 1,3,-1
 694 315 l 1,4,-1
 787 303 l 1,5,-1
 757 119 l 1,6,-1
 636 152 l 1,7,-1
 481 -106 l 1,8,-1
 191 14 l 1,9,-1
 433 199 l 1,10,-1
 339 251 l 1,11,-1
 430 367 l 1,12,-1
 529 345 l 1,13,-1
 527 465 l 1,14,-1
 330 499 l 1,15,-1
 266 415 l 1,16,-1
 32 483 l 1,17,-1
 9 627 l 1,0,-1
EndSplineSet
Validated: 1
EndChar

StartChar: eight
Encoding: 56 56 81
Width: 780
VWidth: 0
Flags: W
LayerCount: 2
Fore
SplineSet
424 805 m 1,0,-1
 388 566 l 1,1,-1
 310 559 l 1,2,-1
 242 511 l 1,3,-1
 318 402 l 1,4,-1
 405 404 l 1,5,-1
 364 236 l 1,6,-1
 296 219 l 1,7,-1
 249 163 l 1,8,-1
 350 92 l 1,9,-1
 452 171 l 1,10,-1
 374 236 l 1,11,-1
 417 406 l 1,12,-1
 504 444 l 1,13,-1
 489 519 l 1,14,-1
 399 587 l 1,15,-1
 433 809 l 1,16,-1
 642 821 l 1,17,-1
 830 632 l 1,18,-1
 737 375 l 1,19,-1
 485 306 l 1,20,-1
 675 180 l 1,21,-1
 615 -16 l 1,22,-1
 445 -139 l 1,23,-1
 -51 44 l 1,24,-1
 -29 266 l 1,25,-1
 152 348 l 1,26,-1
 47 596 l 1,27,-1
 118 780 l 1,28,-1
 424 805 l 1,0,-1
EndSplineSet
Validated: 1
EndChar

StartChar: nine
Encoding: 57 57 82
Width: 835
VWidth: 0
Flags: W
LayerCount: 2
Fore
SplineSet
153 788 m 1,0,-1
 464 850 l 1,1,-1
 603 816 l 1,2,-1
 662 763 l 1,3,-1
 382 560 l 1,4,-1
 306 572 l 1,5,-1
 271 468 l 1,6,-1
 343 407 l 1,7,-1
 424 431 l 1,8,-1
 388 556 l 1,9,-1
 673 760 l 1,10,-1
 839 535 l 1,11,-1
 779 143 l 1,12,-1
 640 -70 l 1,13,-1
 116 -63 l 1,14,-1
 22 96 l 1,15,-1
 91 166 l 1,16,-1
 204 127 l 1,17,-1
 550 137 l 1,18,-1
 574 283 l 1,19,-1
 536 399 l 1,20,-1
 499 399 l 1,21,-1
 523 328 l 1,22,-1
 472 217 l 1,23,-1
 194 221 l 1,24,-1
 1 555 l 1,25,-1
 153 788 l 1,0,-1
EndSplineSet
Validated: 1
EndChar

StartChar: colon
Encoding: 58 58 83
Width: 303
VWidth: 0
Flags: W
LayerCount: 2
Fore
SplineSet
50 437 m 1,0,-1
 134 454 l 1,1,-1
 200 436 l 1,2,-1
 249 399 l 1,3,-1
 241 290 l 1,4,-1
 170 248 l 1,5,-1
 86 257 l 1,6,-1
 13 333 l 1,7,-1
 50 437 l 1,0,-1
80 161 m 1,8,-1
 164 179 l 1,9,-1
 229 160 l 1,10,-1
 278 124 l 1,11,-1
 270 15 l 1,12,-1
 200 -27 l 1,13,-1
 115 -18 l 1,14,-1
 43 58 l 1,15,-1
 80 161 l 1,8,-1
EndSplineSet
Validated: 1
EndChar

StartChar: semicolon
Encoding: 59 59 84
Width: 303
VWidth: 0
Flags: W
LayerCount: 2
Fore
SplineSet
50 437 m 1,0,-1
 134 454 l 1,1,-1
 200 436 l 1,2,-1
 249 399 l 1,3,-1
 241 290 l 1,4,-1
 170 248 l 1,5,-1
 86 257 l 1,6,-1
 13 333 l 1,7,-1
 50 437 l 1,0,-1
80 161 m 1,8,-1
 164 179 l 1,9,-1
 229 160 l 1,10,-1
 278 124 l 1,11,-1
 270 15 l 1,12,-1
 200 -27 l 1,13,-1
 85 -135 l 1,14,-1
 13 -59 l 1,15,-1
 80 161 l 1,8,-1
EndSplineSet
Validated: 1
EndChar

StartChar: less
Encoding: 60 60 85
Width: 782
VWidth: 0
Flags: W
LayerCount: 2
Fore
SplineSet
246 533 m 1,0,-1
 500 823 l 1,1,-1
 673 853 l 1,2,-1
 727 694 l 1,3,-1
 183 342 l 1,4,-1
 163 318 l 1,5,-1
 759 -4 l 1,6,-1
 761 -49 l 1,7,-1
 605 -171 l 1,8,-1
 35 307 l 1,9,-1
 246 533 l 1,0,-1
EndSplineSet
Validated: 1
EndChar

StartChar: equal
Encoding: 61 61 86
Width: 600
VWidth: 0
Flags: W
LayerCount: 2
Fore
SplineSet
31 81 m 25,0,-1
 526 112 l 1,1,-1
 583 38 l 1,2,-1
 563 -72 l 1,3,-1
 37 -58 l 1,4,-1
 9 44 l 1,5,-1
 31 81 l 25,0,-1
10 335 m 25,6,-1
 590 358 l 1,7,-1
 570 216 l 1,8,-1
 528 185 l 1,9,-1
 37 198 l 1,10,-1
 10 335 l 25,6,-1
EndSplineSet
Validated: 1
EndChar

StartChar: greater
Encoding: 62 62 87
Width: 978
VWidth: 0
Flags: W
LayerCount: 2
Fore
SplineSet
81 657 m 25,0,-1
 200 850 l 1,1,-1
 953 408 l 1,2,-1
 282 -139 l 1,3,-1
 101 53 l 1,4,-1
 118 106 l 1,5,-1
 855 389 l 1,6,-1
 103 627 l 1,7,-1
 81 657 l 25,0,-1
EndSplineSet
Validated: 1
EndChar

StartChar: question
Encoding: 63 63 88
Width: 759
VWidth: 0
Flags: W
LayerCount: 2
Fore
SplineSet
375 92 m 25,0,-1
 510 88 l 1,1,-1
 526 0 l 1,2,-1
 483 -84 l 1,3,-1
 367 -72 l 1,4,-1
 317 16 l 1,5,-1
 375 92 l 25,0,-1
28 715 m 25,6,-1
 222 852 l 1,7,-1
 677 821 l 1,8,-1
 751 598 l 1,9,-1
 718 346 l 1,10,-1
 513 127 l 1,11,-1
 380 137 l 1,12,-1
 337 231 l 1,13,-1
 529 387 l 1,14,-1
 526 648 l 1,15,-1
 456 715 l 1,16,-1
 318 725 l 1,17,-1
 294 633 l 1,18,-1
 402 588 l 1,19,-1
 445 500 l 1,20,-1
 429 397 l 1,21,-1
 239 326 l 1,22,-1
 56 412 l 1,23,-1
 28 715 l 25,6,-1
EndSplineSet
Validated: 1
EndChar

StartChar: Ccedilla
Encoding: 199 199 89
Width: 1026
VWidth: 0
Flags: W
LayerCount: 2
Fore
SplineSet
209 844 m 1,0,-1
 798 813 l 1,1,-1
 1061 623 l 1,2,-1
 1027 477 l 1,3,-1
 934 344 l 1,4,-1
 840 332 l 1,5,-1
 569 372 l 1,6,-1
 526 427 l 1,7,-1
 256 434 l 1,8,-1
 262 305 l 1,9,-1
 295 266 l 1,10,-1
 332 252 l 1,11,-1
 360 356 l 1,12,-1
 537 367 l 1,13,-1
 610 274 l 1,14,-1
 795 309 l 1,15,-1
 1037 213 l 1,16,-1
 845 8 l 1,17,-1
 647 0 l 1,18,-1
 707 -100 l 1,19,-1
 408 -123 l 1,20,-1
 379 1 l 1,21,-1
 322 -27 l 1,22,-1
 185 8 l 1,23,-1
 14 96 l 1,24,-1
 -36 223 l 1,25,-1
 27 752 l 1,26,-1
 209 844 l 1,0,-1
EndSplineSet
Validated: 1
EndChar

StartChar: glyph92
Encoding: 256 287 90
Width: 1026
VWidth: 0
Flags: W
LayerCount: 2
Fore
SplineSet
-20 696 m 1,0,-1
 397 684 l 1,1,-1
 412 713 l 1,2,-1
 125 737 l 1,3,-1
 188 909 l 1,4,-1
 514 811 l 1,5,-1
 897 872 l 1,6,-1
 856 748 l 1,7,-1
 705 725 l 1,8,-1
 700 702 l 1,9,-1
 967 686 l 1,10,-1
 1039 592 l 1,11,-1
 1006 446 l 1,12,-1
 958 420 l 1,13,-1
 909 449 l 1,14,-1
 559 406 l 1,15,-1
 523 252 l 1,16,-1
 582 199 l 1,17,-1
 870 158 l 1,18,-1
 828 205 l 1,19,-1
 605 246 l 1,20,-1
 620 336 l 1,21,-1
 901 369 l 1,22,-1
 1016 182 l 1,23,-1
 825 -53 l 1,24,-1
 279 -4 l 1,25,-1
 151 -37 l 1,26,-1
 51 133 l 1,27,-1
 -33 178 l 1,28,-1
 10 426 l 1,29,-1
 -20 696 l 1,0,-1
EndSplineSet
Validated: 1
EndChar

StartChar: glyph93
Encoding: 257 286 91
Width: 1026
VWidth: 0
Flags: W
LayerCount: 2
Fore
SplineSet
12 694 m 1,0,-1
 526 733 l 1,1,-1
 537 762 l 1,2,-1
 102 739 l 1,3,-1
 156 866 l 1,4,-1
 563 881 l 1,5,-1
 963 786 l 1,6,-1
 954 698 l 1,7,-1
 565 762 l 1,8,-1
 555 737 l 1,9,-1
 991 672 l 1,10,-1
 1052 509 l 1,11,-1
 1026 444 l 1,12,-1
 979 418 l 1,13,-1
 930 446 l 1,14,-1
 669 403 l 1,15,-1
 633 250 l 1,16,-1
 691 197 l 1,17,-1
 903 106 l 1,18,-1
 911 154 l 1,19,-1
 715 244 l 1,20,-1
 729 334 l 1,21,-1
 922 367 l 1,22,-1
 1036 180 l 1,23,-1
 995 -14 l 1,24,-1
 846 -55 l 1,25,-1
 299 -6 l 1,26,-1
 171 -39 l 1,27,-1
 72 131 l 1,28,-1
 -12 176 l 1,29,-1
 31 424 l 1,30,-1
 12 694 l 1,0,-1
EndSplineSet
Validated: 1
EndChar

StartChar: glyph95
Encoding: 258 305 92
Width: 998
VWidth: 0
Flags: W
LayerCount: 2
Fore
SplineSet
-47 764 m 1,0,-1
 465 858 l 1,1,-1
 1005 825 l 1,2,-1
 1039 637 l 1,3,-1
 1007 602 l 1,4,-1
 847 610 l 1,5,-1
 851 567 l 1,6,-1
 922 563 l 1,7,-1
 904 184 l 1,8,-1
 852 170 l 1,9,-1
 858 143 l 1,10,-1
 1032 135 l 1,11,-1
 1040 47 l 1,12,-1
 1014 -33 l 1,13,-1
 707 -63 l 1,14,-1
 -23 -37 l 1,15,-1
 -34 21 l 1,16,-1
 129 20 l 1,17,-1
 131 57 l 1,18,-1
 114 80 l 1,19,-1
 103 55 l 1,20,-1
 58 63 l 1,21,-1
 63 481 l 1,22,-1
 118 479 l 1,23,-1
 141 504 l 1,24,-1
 140 552 l 1,25,-1
 118 552 l 1,26,-1
 101 518 l 1,27,-1
 33 541 l 1,28,-1
 -47 764 l 1,0,-1
EndSplineSet
Validated: 1
EndChar

StartChar: Odieresis
Encoding: 214 214 94
Width: 1024
VWidth: 0
Flags: W
LayerCount: 2
Fore
SplineSet
461 934 m 25,0,-1
 715 954 l 1,1,-1
 872 817 l 1,2,-1
 868 737 l 1,3,-1
 680 737 l 1,4,-1
 422 815 l 1,5,-1
 461 934 l 25,0,-1
172 711 m 1,6,-1
 -12 696 l 1,7,-1
 -68 780 l 1,8,-1
 -35 877 l 1,9,-1
 242 922 l 1,10,-1
 311 836 l 1,11,-1
 319 772 l 1,12,-1
 172 711 l 1,6,-1
390 360 m 1,13,-1
 408 127 l 1,14,-1
 451 111 l 1,15,-1
 492 143 l 1,16,-1
 564 436 l 1,17,-1
 512 457 l 1,18,-1
 478 457 l 1,19,-1
 390 360 l 1,13,-1
408 784 m 5,20,-1
 678 698 l 1,21,-1
 870 707 l 1,22,-1
 1040 543 l 1,23,-1
 1024 53 l 1,24,-1
 969 -2 l 1,25,-1
 328 -37 l 1,26,-1
 -30 127 l 1,27,-1
 -31 668 l 1,28,-1
 168 688 l 1,29,-1
 408 784 l 5,20,-1
EndSplineSet
Validated: 1
EndChar

StartChar: odieresis
Encoding: 246 246 95
Width: 1024
VWidth: 0
Flags: W
LayerCount: 2
Fore
SplineSet
473 891 m 25,0,-1
 727 911 l 1,1,-1
 973 821 l 1,2,-1
 969 741 l 1,3,-1
 719 780 l 1,4,-1
 434 772 l 1,5,-1
 473 891 l 25,0,-1
182 725 m 1,6,-1
 0 653 l 1,7,-1
 -55 737 l 1,8,-1
 -23 834 l 1,9,-1
 254 879 l 1,10,-1
 324 793 l 1,11,-1
 334 750 l 1,12,-1
 182 725 l 1,6,-1
414 403 m 1,13,-1
 420 84 l 1,14,-1
 463 68 l 1,15,-1
 504 100 l 1,16,-1
 588 479 l 1,17,-1
 536 500 l 1,18,-1
 502 500 l 1,19,-1
 414 403 l 1,13,-1
420 741 m 1,20,-1
 717 741 l 1,21,-1
 971 711 l 1,22,-1
 1053 500 l 1,23,-1
 1036 10 l 1,24,-1
 981 -45 l 1,25,-1
 340 -80 l 1,26,-1
 -17 84 l 1,27,-1
 -18 625 l 1,28,-1
 178 702 l 1,29,-1
 420 741 l 1,20,-1
EndSplineSet
Validated: 1
EndChar

StartChar: glyph100
Encoding: 259 350 96
Width: 1024
VWidth: 0
Flags: W
LayerCount: 2
Fore
SplineSet
345 280 m 1,0,-1
 494 401 l 1,1,-1
 699 277 l 1,2,-1
 703 304 l 1,3,-1
 485 435 l 1,4,-1
 337 327 l 1,5,-1
 117 384 l 1,6,-1
 -31 600 l 1,7,-1
 53 779 l 1,8,-1
 459 807 l 1,9,-1
 923 745 l 1,10,-1
 1006 716 l 1,11,-1
 1006 539 l 1,12,-1
 906 429 l 1,13,-1
 583 529 l 1,14,-1
 554 584 l 1,15,-1
 506 582 l 1,16,-1
 516 505 l 1,17,-1
 925 378 l 1,18,-1
 1045 151 l 1,19,-1
 731 23 l 1,20,-1
 756 -105 l 1,21,-1
 547 -174 l 1,22,-1
 332 -111 l 1,23,-1
 375 0 l 1,24,-1
 34 6 l 1,25,-1
 -37 253 l 1,26,-1
 40 356 l 1,27,-1
 178 324 l 1,28,-1
 345 280 l 1,0,-1
EndSplineSet
Validated: 1
EndChar

StartChar: glyph101
Encoding: 260 351 97
Width: 1024
VWidth: 0
Flags: W
LayerCount: 2
Fore
SplineSet
46 817 m 5,0,-1
 452 845 l 1,1,-1
 916 783 l 1,2,-1
 998 754 l 1,3,-1
 1006 539 l 1,4,-1
 906 429 l 1,5,-1
 583 529 l 1,6,-1
 554 584 l 1,7,-1
 506 582 l 1,8,-1
 516 505 l 1,9,-1
 925 378 l 1,10,-1
 1045 151 l 1,11,-1
 798 12 l 1,12,-1
 753 63 l 1,13,-1
 722 55 l 1,14,-1
 778 -63 l 1,15,-1
 592 -181 l 1,16,-1
 410 -157 l 1,17,-1
 424 -39 l 1,18,-1
 35 -54 l 1,19,-1
 -36 193 l 1,20,-1
 42 296 l 1,21,-1
 179 264 l 1,22,-1
 327 225 l 1,23,-1
 399 364 l 1,24,-1
 629 294 l 1,25,-1
 626 321 l 1,26,-1
 383 394 l 1,27,-1
 307 268 l 1,28,-1
 118 324 l 1,29,-1
 -31 600 l 1,30,-1
 46 817 l 5,0,-1
EndSplineSet
Validated: 1
EndChar

StartChar: udieresis
Encoding: 252 252 98
Width: 1024
VWidth: 0
Flags: W
LayerCount: 2
Fore
SplineSet
3 807 m 25,0,-1
 115 809 l 1,1,-1
 156 764 l 1,2,-1
 471 797 l 1,3,-1
 481 760 l 1,4,-1
 476 604 l 1,5,-1
 279 580 l 1,6,-1
 269 562 l 1,7,-1
 476 585 l 1,8,-1
 467 283 l 1,9,-1
 416 252 l 1,10,-1
 412 217 l 1,11,-1
 515 223 l 1,12,-1
 565 288 l 1,13,-1
 567 337 l 1,14,-1
 498 359 l 1,15,-1
 511 587 l 1,16,-1
 820 567 l 1,17,-1
 819 579 l 1,18,-1
 532 628 l 1,19,-1
 519 783 l 1,20,-1
 583 851 l 1,21,-1
 930 799 l 1,22,-1
 1025 685 l 1,23,-1
 1024 582 l 1,24,-1
 859 595 l 1,25,-1
 857 580 l 1,26,-1
 1047 559 l 1,27,-1
 1044 266 l 1,28,-1
 930 12 l 1,29,-1
 499 0 l 1,30,-1
 160 70 l 1,31,-1
 119 -20 l 1,32,-1
 0 49 l 1,33,-1
 -30 542 l 1,34,-1
 249 562 l 1,35,-1
 260 580 l 1,36,-1
 -35 589 l 1,37,-1
 -43 709 l 1,38,-1
 3 807 l 25,0,-1
EndSplineSet
Validated: 1
EndChar

StartChar: Udieresis
Encoding: 220 220 99
Width: 1024
VWidth: 0
Flags: W
LayerCount: 2
Fore
SplineSet
3 807 m 25,0,-1
 115 809 l 1,1,-1
 156 764 l 1,2,-1
 203 854 l 1,3,-1
 565 803 l 1,4,-1
 549 676 l 1,5,-1
 317 639 l 1,6,-1
 548 629 l 1,7,-1
 485 318 l 1,8,-1
 426 306 l 1,9,-1
 411 274 l 1,10,-1
 528 212 l 1,11,-1
 586 228 l 1,12,-1
 604 274 l 1,13,-1
 546 318 l 1,14,-1
 616 629 l 1,15,-1
 780 627 l 1,16,-1
 640 733 l 1,17,-1
 703 801 l 1,18,-1
 930 799 l 1,19,-1
 1049 700 l 1,20,-1
 846 629 l 1,21,-1
 1047 586 l 1,22,-1
 1044 266 l 1,23,-1
 930 12 l 1,24,-1
 561 -20 l 1,25,-1
 211 14 l 1,26,-1
 160 70 l 1,27,-1
 72 0 l 1,28,-1
 0 49 l 1,29,-1
 -43 649 l 1,30,-1
 215 641 l 1,31,-1
 -43 709 l 1,32,-1
 3 807 l 25,0,-1
EndSplineSet
Validated: 1
EndChar

StartChar: glyph104
Encoding: 261 304 100
Width: 940
VWidth: 0
Flags: W
LayerCount: 2
Fore
SplineSet
32 774 m 1,0,-1
 430 859 l 1,1,-1
 894 864 l 1,2,-1
 916 670 l 1,3,-1
 895 634 l 1,4,-1
 535 605 l 1,5,-1
 538 561 l 1,6,-1
 841 594 l 1,7,-1
 830 204 l 1,8,-1
 779 166 l 1,9,-1
 783 139 l 1,10,-1
 852 179 l 1,11,-1
 887 101 l 1,12,-1
 862 -5 l 1,13,-1
 494 -65 l 1,14,-1
 31 -69 l 1,15,-1
 17 -8 l 1,16,-1
 136 -10 l 1,17,-1
 138 29 l 1,18,-1
 53 35 l 1,19,-1
 58 474 l 1,20,-1
 425 532 l 1,21,-1
 417 585 l 1,22,-1
 22 537 l 1,23,-1
 32 774 l 1,0,-1
EndSplineSet
Validated: 1
EndChar

StartChar: ccedilla
Encoding: 231 231 101
Width: 1026
VWidth: 0
Flags: W
LayerCount: 2
Fore
SplineSet
-39 377 m 1,0,-1
 27 752 l 1,1,-1
 209 844 l 1,2,-1
 798 813 l 1,3,-1
 1033 612 l 1,4,-1
 999 467 l 1,5,-1
 920 285 l 1,6,-1
 723 276 l 1,7,-1
 590 268 l 1,8,-1
 506 401 l 1,9,-1
 293 362 l 1,10,-1
 281 211 l 1,11,-1
 309 198 l 1,12,-1
 334 186 l 1,13,-1
 353 274 l 1,14,-1
 498 328 l 1,15,-1
 552 201 l 1,16,-1
 674 230 l 1,17,-1
 969 233 l 1,18,-1
 845 8 l 1,19,-1
 647 0 l 1,20,-1
 707 -100 l 1,21,-1
 346 -156 l 1,22,-1
 340 10 l 1,23,-1
 283 -18 l 1,24,-1
 185 8 l 1,25,-1
 14 96 l 1,26,-1
 -39 377 l 1,0,-1
EndSplineSet
Validated: 1
EndChar

StartChar: exclamdown
Encoding: 161 161 102
Width: 1024
VWidth: 0
Flags: W
LayerCount: 2
Fore
SplineSet
485 442 m 5,0,-1
 461 578 l 1,1,-1
 42 528 l 1,2,-1
 53 756 l 1,3,-1
 466 829 l 1,4,-1
 1016 786 l 1,5,-1
 1041 600 l 1,6,-1
 1018 565 l 1,7,-1
 498 582 l 1,8,-1
 514 477 l 1,9,-1
 845 486 l 1,10,-1
 944 152 l 1,11,-1
 886 115 l 1,12,-1
 890 89 l 1,13,-1
 968 127 l 1,14,-1
 1008 52 l 1,15,-1
 980 -49 l 1,16,-1
 543 -57 l 1,17,-1
 17 -61 l 1,18,-1
 1 -2 l 1,19,-1
 136 -4 l 1,20,-1
 139 33 l 1,21,-1
 41 39 l 1,22,-1
 47 461 l 1,23,-1
 485 442 l 5,0,-1
EndSplineSet
Validated: 1
EndChar

StartChar: Adieresis
Encoding: 196 196 103
Width: 1024
VWidth: 0
Flags: W
LayerCount: 2
Fore
SplineSet
593 813 m 29,0,-1
 538 849 l 1,1,-1
 618 1005 l 1,2,-1
 838 899 l 1,3,-1
 855 813 l 1,4,-1
 834 773 l 1,5,-1
 707 726 l 1,6,-1
 593 813 l 29,0,-1
303 706 m 29,7,-1
 161 730 l 1,8,-1
 112 779 l 1,9,-1
 159 943 l 1,10,-1
 351 977 l 1,11,-1
 476 877 l 1,12,-1
 462 821 l 1,13,-1
 303 706 l 29,7,-1
44 395 m 5,14,-1
 21 470 l 1,15,-1
 124 696 l 1,16,-1
 336 680 l 1,17,-1
 517 831 l 1,18,-1
 688 708 l 1,19,-1
 871 754 l 1,20,-1
 963 734 l 1,21,-1
 997 600 l 1,22,-1
 991 287 l 1,23,-1
 778 574 l 1,24,-1
 511 650 l 1,25,-1
 443 502 l 1,26,-1
 478 423 l 1,27,-1
 773 548 l 1,28,-1
 1017 225 l 1,29,-1
 1017 2 l 1,30,-1
 633 -56 l 1,31,-1
 677 211 l 1,32,-1
 706 237 l 1,33,-1
 714 353 l 1,34,-1
 582 353 l 1,35,-1
 614 -72 l 1,36,-1
 602 -114 l 1,37,-1
 42 -44 l 1,38,-1
 -9 30 l 1,39,-1
 3 52 l 1,40,-1
 89 171 l 1,41,-1
 97 337 l 1,42,-1
 75 321 l 1,43,-1
 73 171 l 1,44,-1
 11 82 l 1,45,-1
 44 395 l 5,14,-1
EndSplineSet
Validated: 1
EndChar

StartChar: adieresis
Encoding: 228 228 104
Width: 1024
VWidth: 0
Flags: W
LayerCount: 2
Fore
SplineSet
579 753 m 5,0,-1
 504 760 l 1,1,-1
 584 916 l 1,2,-1
 804 810 l 1,3,-1
 837 733 l 1,4,-1
 812 696 l 1,5,-1
 679 739 l 1,6,-1
 579 753 l 5,0,-1
263 704 m 5,7,-1
 127 641 l 1,8,-1
 78 690 l 1,9,-1
 125 854 l 1,10,-1
 318 888 l 1,11,-1
 442 788 l 1,12,-1
 431 749 l 1,13,-1
 263 704 l 5,7,-1
10 306 m 5,14,-1
 -13 381 l 1,15,-1
 90 607 l 1,16,-1
 292 690 l 1,17,-1
 483 742 l 1,18,-1
 660 721 l 1,19,-1
 837 665 l 1,20,-1
 930 645 l 1,21,-1
 964 511 l 1,22,-1
 996 255 l 1,23,-1
 745 485 l 1,24,-1
 477 561 l 1,25,-1
 409 413 l 1,26,-1
 444 334 l 1,27,-1
 739 459 l 1,28,-1
 1021 192 l 1,29,-1
 1021 -30 l 1,30,-1
 638 -89 l 1,31,-1
 682 178 l 1,32,-1
 711 205 l 1,33,-1
 719 321 l 1,34,-1
 586 321 l 1,35,-1
 618 -105 l 1,36,-1
 607 -147 l 1,37,-1
 46 -76 l 1,38,-1
 -4 -2 l 1,39,-1
 7 20 l 1,40,-1
 93 138 l 1,41,-1
 101 305 l 1,42,-1
 79 289 l 1,43,-1
 78 138 l 1,44,-1
 15 50 l 1,45,-1
 10 306 l 5,14,-1
EndSplineSet
Validated: 1
EndChar
